<?xml version="1.0" standalone="no"?>
<!DOCTYPE svg PUBLIC "-//W3C//DTD SVG 1.1//EN" "http://www.w3.org/Graphics/SVG/1.1/DTD/svg11.dtd" >
<svg xmlns="http://www.w3.org/2000/svg">
<metadata>
Created by FontForge 20120731 at Fri Dec  2 09:37:45 2016
 By admin
</metadata>
<defs>
<font id="iconfont" horiz-adv-x="1024" >
  <font-face 
    font-family="iconfont"
    font-weight="500"
    font-stretch="normal"
    units-per-em="1024"
    panose-1="2 0 6 3 0 0 0 0 0 0"
    ascent="896"
    descent="-128"
    x-height="792"
    bbox="-1 -170 1678 896.362"
    underline-thickness="0"
    underline-position="0"
    unicode-range="U+0078-E85D"
  />
<missing-glyph 
 />
    <glyph glyph-name=".notdef" 
 />
    <glyph glyph-name=".notdef" 
 />
    <glyph glyph-name=".null" horiz-adv-x="0" 
 />
    <glyph glyph-name="nonmarkingreturn" horiz-adv-x="341" 
 />
    <glyph glyph-name="x" unicode="x" horiz-adv-x="1001" 
d="M281 543q-27 -1 -53 -1h-83q-18 0 -36.5 -6t-32.5 -18.5t-23 -32t-9 -45.5v-76h912v41q0 16 -0.5 30t-0.5 18q0 13 -5 29t-17 29.5t-31.5 22.5t-49.5 9h-133v-97h-438v97zM955 310v-52q0 -23 0.5 -52t0.5 -58t-10.5 -47.5t-26 -30t-33 -16t-31.5 -4.5q-14 -1 -29.5 -0.5
t-29.5 0.5h-32l-45 128h-439l-44 -128h-29h-34q-20 0 -45 1q-25 0 -41 9.5t-25.5 23t-13.5 29.5t-4 30v167h911zM163 247q-12 0 -21 -8.5t-9 -21.5t9 -21.5t21 -8.5q13 0 22 8.5t9 21.5t-9 21.5t-22 8.5zM316 123q-8 -26 -14 -48q-5 -19 -10.5 -37t-7.5 -25t-3 -15t1 -14.5
t9.5 -10.5t21.5 -4h37h67h81h80h64h36q23 0 34 12t2 38q-5 13 -9.5 30.5t-9.5 34.5q-5 19 -11 39h-368zM336 498v228q0 11 2.5 23t10 21.5t20.5 15.5t34 6h188q31 0 51.5 -14.5t20.5 -52.5v-227h-327z" />
    <glyph glyph-name="etao" unicode="&#xe63b;" horiz-adv-x="1678" 
d="M706 435l6 -117h-657q-24 0 -39.5 14.5t-15.5 35.5v67h706zM820 233q5 24 16.5 36t23.5 17q13 6 29 5h67l-63 -281q-4 -14 -12.5 -22.5t-17.5 -12.5q-10 -4 -22 -5h-91q20 76 32 121q4 18 12 46q7 27 11 43q5 19 9 33q2 5 3.5 11.5t2.5 8.5zM924 481q22 -9 29 -21.5
t8 -23.5q1 -14 -5 -28l-30 -59q-2 -5 -4 -6q-4 -4 -9 6q-3 7 -11 13q-9 5 -24 12q-32 12 -50 20q-16 6 -22 12q-21 8 -28.5 20.5t-7.5 23.5q-1 14 6 26l27 63l3 3h4t6 -4q5 -7 12.5 -12.5t22.5 -13.5q31 -14 49 -22q17 -8 24 -9zM866 597q-16 0 -30.5 6t-25 16.5t-16.5 24
t-6 29.5t6 29.5t16.5 24t25 16.5t30.5 6q15 0 28.5 -6t23.5 -16.5t17 -24.5q6 -13 6 -29t-6 -29q-6 -14 -17 -24q-9 -11 -23 -17q-13 -6 -29 -6zM1621 707q24 0 40.5 -15.5t16.5 -36.5v-674h-113v624h-485q-12 0 -22.5 4t-18.5 11t-12.5 16t-4.5 19v130h108l5 -79h486v1z
M1319 88h55v-110h-294q-12 0 -22.5 4t-18.5 11t-12.5 16t-4.5 19v104h113v-44h73v116h-174v101h174v87h-128q-24 0 -41 14.5t-17 36.5v111h108l5 -62h367l1 -100h-185v-87h183l2 -101h-185v-116h1zM1415 128h88v-150h-88v150z" />
    <glyph glyph-name="wanke" unicode="&#xe647;" horiz-adv-x="1316" 
d="M1314 555q0 -12 -1.5 -16.5t-10.5 -8t-29 -3.5q-28 0 -34 5.5t-6 22.5q0 7 -0.5 27t-0.5 30q0 13 -8.5 23t-23.5 10h-379q-10 1 -21 -10.5t-11 -22.5v-58q0 -14 -9 -20.5t-32 -6.5t-32 7t-10 21v94q0 34 14.5 45t53.5 11h187q-6 13 -8 21t1.5 13.5t6 7.5t11 5.5t12.5 5.5
q10 5 15 7t12 3t11.5 -3.5t8.5 -13.5q14 -27 18 -46q152 1 199 0q38 0 52 -11t15 -39q0 -21 -0.5 -58.5t-0.5 -41.5zM722 416q96 6 159 20q32 7 58 15q-38 24 -66 49l-40 -23l-4 -2q-6 -4 -14 -0.5t-20 19.5q-20 29 0 41q57 33 66 42q12 12 27 21q4 3 9.5 4t15.5 1h16h219
q27 0 38 -13q10 -13 8 -28q-1 -17 -18 -35q-22 -26 -87 -74q32 -12 61 -20q56 -15 118 -22q18 -2 23 -9.5t-2 -29.5q-6 -20 -13 -27.5t-19 -7.5q-1 1 -18 5t-43 10.5t-56.5 15t-66 20t-63.5 23.5q-63 -24 -169 -48q-62 -13 -114 -19q-19 0 -23.5 7.5t-4.5 30.5q0 5 0.5 11
t1.5 10.5t6 8t15 4.5zM1019 484q10 6 39.5 24.5t31.5 20.5q3 2 4 6.5t-1 5.5q-4 3 -14 3h-136q-9 -2 -2 -10h1q24 -20 77 -50zM1250 338q4 -1 7 -1zM818 63q72 -7 129 4t92 34.5t54.5 53t23.5 62.5q6 43 -25 76t-93 31q-24 -1 -42 -12.5t-25.5 -28t-11 -30t-2.5 -22.5
q1 -18 -19 -35.5t-45 -4.5q-23 12 -25.5 39t10.5 54t33 45q37 32 95 40.5t109.5 -5.5t86.5 -52.5t29 -91.5q-6 -54 -32.5 -96.5t-65.5 -67t-89 -40t-103.5 -16t-107.5 5.5q-13 1 -29.5 4.5t-47 13.5t-59 24t-60 37.5t-54 53t-37.5 72.5t-15 93q1 88 2 155l-66 -1v-125
q-4 -77 -32 -146q-4 -8 -14.5 -25.5t-28.5 -42.5t-40 -41t-40 -13q-13 3 -27.5 19.5t-12.5 27.5q2 10 25 26.5t32 27.5q38 43 48 94q6 23 7 73v125h-9v0h-60q-6 0 -10 1t-7.5 5.5t-3.5 12.5v24q0 11 6 14.5t21 3.5h350q16 0 20.5 -3t5.5 -15v-10v-9v-4q0 -12 -5 -15.5
t-20 -3.5h-58q-1 -63 0 -153q0 -97 72 -165t171 -78zM616 654h-288q-2 0 -6 0.5t-5.5 0.5t-4 1t-3.5 2l-2.5 2.5t-2 4t-0.5 6.5v26q1 3 2 5t1.5 4t2 3t2.5 1.5t3.5 1t3.5 1t5 0.5t5 1h288q13 -2 17.5 -5t6.5 -13v-12.5v-12.5q0 -4 -0.5 -6.5t-2 -4.5t-2.5 -3t-3.5 -1.5
t-4 -0.5t-6 -0.5t-6.5 -0.5zM255 663q0 -10 -5.5 -13t-18.5 -5h-66v-203h39q2 0 6 -0.5t5.5 -0.5t4.5 -0.5t3.5 -1.5t2.5 -2t2.5 -2.5t1 -4t0.5 -5.5v-12.5v-12.5q-3 -10 -9 -13t-20 -5h-36v-164l33 18q11 4 17 0t13 -16q5 -12 5 -19.5t-10 -14.5l-190 -104q-10 -4 -16 1
t-13 19q-4 11 -3.5 18.5t9.5 13.5l72 39v209h-43q-9 1 -12.5 2t-6.5 4.5t-4 10.5v7t0.5 12.5l0.5 6.5q0 4 1 6.5t3 4t3 2.5t4 1.5t4.5 1t6 1t5.5 0.5h38v203h-57q-1 0 -6 0.5t-6.5 1l-4.5 1.5t-4.5 2.5t-2.5 5t-1 7.5v8v11v5q0 7 1 11t6 5.5t6.5 1.5h11.5h206q15 0 20 -3
t4 -15v-13v-11z" />
    <glyph glyph-name="clothing" unicode="&#xe656;" 
d="M755 653l71 -77l-90 -90l-19 -19v-19v-339h-410v339v26l-19 19l-90 89l71 71h96q29 -29 69 -46.5t78 -17.5q40 0 82 19t65 51h96v-6zM781 717h-154q-14 -33 -45 -52t-70 -19t-70 19t-45 52h-154l-109 -103q-11 -34 0 -57l109 -109v-358q0 -20 13 -32.5t32 -12.5h442
q19 0 31.5 12.5t12.5 32.5v358l116 109q9 9 9 26t-9 31l-109 103v0z" />
    <glyph glyph-name="clock" unicode="&#xe65b;" 
d="M512 704q-134 0 -227 -93t-93 -227t93 -227t227 -93t227 93t93 227t-93 227t-227 93zM512 128q-106 0 -181 75t-75 181t75 181t181 75t181 -75t75 -181t-75 -181t-181 -75zM544 397v179q0 14 -9 23t-23 9t-23 -9t-9 -23v-192q0 -3 3 -12.5t3 -13.5l103 -102q6 -6 25.5 -6
t25.5 6q10 10 10 22.5t-10 22.5zM365 704q0 3 -3.5 9.5t-3.5 9.5v0q-28 24 -70 24t-70 -24l-45 -45q-24 -28 -24 -70t24 -70q3 0 9.5 -3.5t9.5 -3.5q24 58 69.5 103.5t103.5 69.5zM851 678l-45 45q-28 29 -66.5 29t-67.5 -29q-3 -3 -6.5 -9.5t-6.5 -9.5q128 -64 173 -173
q3 3 9.5 6.5t9.5 6.5q24 24 24 65t-24 69zM262 115l-25 -25q-10 -10 -10 -23t10 -22q6 -7 25.5 -7t25.5 7l26 25q9 10 9 23t-9.5 22.5t-25.5 9.5t-26 -10zM762 115q-10 10 -23 10t-22.5 -9.5t-9.5 -22.5t10 -23l25 -25q7 -7 26 -7t26 7q9 9 9 22t-9 23z" />
    <glyph glyph-name="jisufan" unicode="&#xe65c;" 
d="M512 768q-158 0 -271 -113t-113 -271t113 -271t271 -113t271 113t113 271t-113 271t-271 113zM730 403l-199 -256q-5 -4 -9 -1.5t-4 8.5l39 204h-45l-166 -211q-5 -4 -9 -1.5t-4 8.5l38 204h-70q-7 0 -7 13l199 256q5 4 9 1.5t4 -7.5l-32 -211h38l166 211q5 4 9 1.5
t4 -8.5l-38 -204h70q3 0 4.5 -2t1.5 -3z" />
    <glyph glyph-name="kuaisufan" unicode="&#xe65d;" 
d="M512 768q-158 0 -271 -113t-113 -271t113 -271t271 -113t271 113t113 271t-113 271t-271 113zM640 403l-198 -256q-5 -4 -9 -1.5t-4 8.5l38 204h-77q-2 0 -4 2t-2 3v2l198 256q5 4 9 1.5t4 -8.5l-32 -204h71q2 0 4 -2t2 -3v-2z" />
    <glyph glyph-name="remind" unicode="&#xe65f;" 
d="M819 109h-614q-13 0 -26 13q-10 10 0 32l58 115v179q0 86 52 160t133 102q5 30 31 50.5t59 20.5q34 0 59.5 -22t30.5 -55q82 -29 133.5 -100.5t51.5 -161.5v-180l58 -115q10 -10 0 -32q-3 -6 -6 -7.5t-10 0t-10 1.5zM256 166h512l-38 77q0 3 -3.5 6.5t-3.5 6.5v192
q0 73 -44.5 132t-115.5 73q-11 5 -17 14t-2 18v6q0 10 -9 18t-23 8q-32 0 -32 -26v-6q0 -12 -6.5 -22t-19.5 -10q-68 -20 -114 -77t-46 -128v-186q0 -6 -6 -12zM422 77q0 -39 26 -64.5t64 -25.5t64 25.5t26 64.5h-180z" />
    <glyph glyph-name="tag" unicode="&#xe67f;" 
d="M813 397l-288 288q-19 19 -45 19h-224q-29 0 -46.5 -17.5t-17.5 -46.5v-224q0 -26 19 -45l288 -288q19 -19 45 -19t45 19l224 224q19 19 19 45t-19 45zM384 512q-14 -14 -35 -14t-35.5 14t-14.5 35t14.5 35.5t35.5 14.5t35 -14.5t14 -35.5t-14 -35z" />
    <glyph glyph-name="wow" unicode="&#xe680;" 
d="M512 0q-158 0 -271 113t-113 271t113 271t271 113t271 -113t113 -271t-113 -271t-271 -113zM512 710q-88 0 -163.5 -43.5t-119 -119t-43.5 -163.5t43.5 -163.5t119 -119t163.5 -43.5t163.5 43.5t119 119t43.5 163.5t-43.5 163.5t-119 119t-163.5 43.5zM397 416
q0 -13 -10.5 -22.5t-21.5 -9.5v0q-15 0 -23.5 9t-8.5 23v58q0 14 8.5 23t23.5 9v0q14 0 23 -9t9 -23v-58zM691 416q0 -14 -8.5 -23t-23.5 -9v0q-14 0 -23 9t-9 23v58q0 14 9 23t23 9v0q15 0 23.5 -9t8.5 -23v-58zM550 237q0 -19 -11.5 -32t-26.5 -13v0q-14 0 -26 12t-12 26
v77q0 15 12 27t26 12v0q14 0 26 -12t12 -27v-70z" />
    <glyph glyph-name="sad" unicode="&#xe681;" 
d="M512 0q-158 0 -271 113t-113 271t113 271t271 113t271 -113t113 -271t-113 -271t-271 -113zM512 710q-88 0 -163.5 -43.5t-119 -119t-43.5 -163.5t43.5 -163.5t119 -119t163.5 -43.5t163.5 43.5t119 119t43.5 163.5t-43.5 163.5t-119 119t-163.5 43.5zM397 416
q0 -13 -10.5 -22.5t-21.5 -9.5v0q-15 0 -23.5 9t-8.5 23v58q0 14 8.5 23t23.5 9v0q14 0 23 -9t9 -23v-58zM691 416q0 -14 -8.5 -23t-23.5 -9v0q-14 0 -23 9t-9 23v58q0 14 9 23t23 9v0q15 0 23.5 -9t8.5 -23v-58zM384 205q-13 0 -19 6q-10 10 -10 22.5t10 22.5
q24 29 64 46.5t83 17.5t83.5 -17.5t70.5 -46.5q9 -10 9 -22.5t-9.5 -22t-22.5 -9.5t-22 9q-45 47 -109 46t-109 -46q-6 -6 -19 -6z" />
    <glyph glyph-name="smile" unicode="&#xe682;" 
d="M512 0q-158 0 -271 113t-113 271t113 271t271 113t271 -113t113 -271t-113 -271t-271 -113zM512 710q-88 0 -163.5 -43.5t-119 -119t-43.5 -163.5t43.5 -163.5t119 -119t163.5 -43.5t163.5 43.5t119 119t43.5 163.5t-43.5 163.5t-119 119t-163.5 43.5zM397 416
q0 -13 -10.5 -22.5t-21.5 -9.5v0q-15 0 -23.5 9t-8.5 23v58q0 14 8.5 23t23.5 9v0q14 0 23 -9t9 -23v-58zM691 416q0 -14 -8.5 -23t-23.5 -9v0q-14 0 -23 9t-9 23v58q0 14 9 23t23 9v0q15 0 23.5 -9t8.5 -23v-58zM640 320q13 0 19 -6q10 -10 10 -23t-10 -22
q-55 -64 -153 -64q-43 0 -84 17t-70 47q-10 9 -10 22t10 23q34 11 51 -7q45 -47 109 -45.5t109 45.5q13 13 19 13z" />
    <glyph glyph-name="flashoff" unicode="&#xe683;" 
d="M634 429h-122l64 352q0 9 -7 10.5t-12 -4.5l-346 -429q-4 -4 -1.5 -11.5t8.5 -7.5h121l-64 -352q0 -9 7.5 -10.5t11.5 4.5l346 429q5 4 4 11.5t-10 7.5zM678.5 250q-57.5 0 -96 -38.5t-38.5 -96t38.5 -96t96 -38.5t96 38.5t38.5 96t-38.5 96t-96 38.5zM570 115
q0 43 32.5 76t75.5 33q47 0 64 -26l-153 -153q-19 29 -19 70zM678 6q-47 0 -64 26l154 154q26 -39 26 -64q-5 -52 -38 -84t-78 -32z" />
    <glyph glyph-name="flashauto" unicode="&#xe686;" 
d="M634 429h-122l64 352q0 9 -7 10.5t-12 -4.5l-346 -429q-4 -4 -1.5 -11.5t8.5 -7.5h121l-64 -352q0 -9 7.5 -10.5t11.5 4.5l346 429q5 4 4 11.5t-10 7.5zM794 -6h-39l-19 70h-109l-25 -70h-32l89 249h45zM723 90l-45 121l-44 -121h89z" />
    <glyph glyph-name="flash" unicode="&#xe688;" 
d="M717 429h-122l64 352q0 9 -7 10.5t-12 -4.5l-339 -429q-5 -4 -2 -11.5t8 -7.5h122l-64 -352q0 -9 7 -10.5t12 4.5l339 429q6 4 4.5 11.5t-10.5 7.5z" />
    <glyph glyph-name="temperature" unicode="&#xe689;" 
d="M621 192q0 45 -39 83l-25 19v39v89l-90 20v-109v-39l-25 -19q-39 -29 -39 -83q0 -43 33 -76t76 -33t76 33t33 76zM512 704q29 0 46.5 -17.5t17.5 -46.5v-307v-26l19 -19q45 -36 45 -96q0 -53 -37.5 -90.5t-90.5 -37.5t-90.5 37.5t-37.5 90.5q0 60 45 96l19 19v26v307
q0 29 17.5 46.5t46.5 17.5zM512 768q-53 0 -90.5 -37.5t-37.5 -90.5v-307q-29 -25 -46.5 -62t-17.5 -79q0 -82 55 -137t137 -55t137 55t55 137q0 42 -17.5 79t-46.5 62v307q0 53 -37.5 90.5t-90.5 37.5v0z" />
    <glyph glyph-name="rotating" unicode="&#xe68a;" 
d="M576 678v0v64q0 15 -12 22t-26 -2l-122 -84q-10 -4 -10 -18.5t10 -19.5l122 -83q14 -9 26 -2.5t12 21.5v51v0q98 -24 164 -103t66 -178q0 -120 -84 -204t-204 -84t-204 84t-84 204q0 9 -8 17t-17.5 8t-17.5 -8t-8 -17q-6 -94 37.5 -174t122 -126t173.5 -46q94 0 174 46
t126 125.5t46 174.5q0 124 -80.5 218.5t-201.5 113.5zM390 301q20 0 32 6q13 13 20 26q-8 -48 -20 -71q-9 -19 -32 -19q-12 0 -19 7q-19 9 -19 32h-32q0 -26 19 -45t51 -19q50 0 71 51q6 25 6 77q0 32 -13 57q-9 45 -64 45q-32 0 -51 -19t-19 -51t19 -52q26 -25 51 -25z
M358 410q13 12 32.5 12t32 -12.5t12.5 -38t-13 -38.5q-2 0 -13 -3.5t-19 -3.5q-19 0 -32 13q-6 13 -6 38.5t6 32.5zM557 224q46 0 64 45q13 38 13 76.5t-13 76.5q-17 26 -64 26q-44 0 -64 -51q-13 -26 -13 -64q0 -48 19 -77q22 -32 58 -32zM525 403q13 26 38 26q30 0 39 -26
q6 -19 6 -64t-13 -70q-9 -19 -32 -19q-28 0 -38 32q-13 12 -13 51q0 32 13 70zM723 371q13 13 13 32t-13 32q-6 13 -32 13q-19 0 -32 -13t-13 -32t13 -32t32 -13t32 13zM666 403q0 13 6 19.5t19 6.5t19.5 -6.5t6.5 -19.5t-6.5 -19t-19.5 -6t-19 6t-6 19z" />
    <glyph glyph-name="edit" unicode="&#xe68b;" 
d="M742 51v0q-51 0 -89 39l-160 160q-68 -19 -132 -2t-118 66q-57 57 -71 134t20 154q10 19 26 19q19 0 25 -7l115 -115l71 71l-115 108q-13 13 -13 26q0 16 19 26q72 33 151.5 19.5t136.5 -71.5q48 -48 65.5 -115t-1.5 -134l160 -160q38 -39 38 -90t-38 -89.5t-90 -38.5z
M499 314q3 0 13 -3.5t13 -3.5l173 -173q19 -19 44 -19v0q26 0 45 19.5t19 45t-19 44.5l-173 173q-9 4 -10 15.5t4 16.5q19 53 6.5 107t-51.5 98q-33 33 -78 46.5t-88 4.5l83 -83q14 -15 14 -35.5t-14 -35.5l-90 -89q-14 -15 -35 -15t-35 15l-83 83q-10 -44 4 -88.5t47 -78.5
q39 -38 92 -50.5t106 6.5h13z" />
    <glyph glyph-name="fav" unicode="&#xe68c;" 
d="M717 13q-19 0 -26 6l-179 122l-179 -122q-29 -19 -58 0q-29 20 -19 51l64 212l-173 134q-22 22 -13 51q5 14 18 23t27 9l211 13l77 205q6 18 25.5 25.5t39 0t25.5 -25.5v0l77 -205l217 -6q15 0 27.5 -9t17.5 -23q10 -32 -19 -52l-173 -140l58 -212q10 -31 -20 -51
q-2 0 -10 -3t-15 -3zM512 211q13 0 19 -6l167 -115l-58 192q0 12 0.5 17.5t3.5 11.5t9 9l160 128h-205q-10 0 -18 8t-8 18l-70 185l-70 -192q0 -5 -8.5 -12t-17.5 -7l-205 -6l160 -128q6 0 9 -4.5t3.5 -8.5t0.5 -13l-58 -192l167 115h19z" />
    <glyph glyph-name="write" unicode="&#xe68d;" 
d="M640 384l-192 -192l-102 -19q0 19 -20 38q-5 6 -11.5 9t-14.5 5.5t-12 4.5l19 103l199 198q9 10 9 22.5t-9.5 22.5t-22.5 10t-22 -10l-205 -211q0 -3 -3 -9.5t-3 -9.5l-45 -224q0 -20 6 -32q7 -7 26 -7h6l224 45q3 0 9.5 3t9.5 3l205 205q10 10 10 22.5t-9.5 22.5
t-25.5 10t-26 -10zM576 634q-10 9 -22.5 9t-22 -9.5t-9.5 -22.5t9 -22l179 -179q7 -7 26 -7t26 7q9 9 9 22t-9 22zM858 602l-135 134q-19 19 -44.5 19t-44.5 -19l-45 -38q-19 -29 0 -58l173 -173q9 -9 25 -9t26 9l45 45q19 19 19 44.5t-19 45.5zM371 250q7 -7 26 -7t25 7
l180 179q9 9 9 22t-9.5 22.5t-22.5 9.5t-22 -9l-186 -180q-9 -9 -9 -22t9 -22z" />
    <glyph glyph-name="level" unicode="&#xe68e;" 
d="M896 237v0q-3 0 -8 6.5t-12 16.5t-12 15q-2 3 -9.5 16.5t-11 18.5t-11.5 15t-14.5 14.5t-16 8.5t-20.5 4v0q-16 0 -29 -6t-23 -19t-16 -23t-15 -29q0 -8 -7 -20t-13 -18q-8 24 -25 147q-21 134 -40 169q-18 36 -50 36v0q-39 0 -59 -75q-9 -34 -24 -130q-16 -114 -32 -154
q-7 8 -15 22t-11 17q-12 37 -29 60t-47 23v0q-16 0 -29 -6t-23.5 -19t-16 -23t-15.5 -29q-4 -14 -12 -26t-13 -12q-13 0 -32 38q-7 16 -12 26.5t-14 23.5t-22 20t-29 7v0q-14 0 -23 -9t-9 -23t9 -23t23 -9v0q3 0 8 -6.5t12 -16.5t12 -15q2 -3 9.5 -16.5t11 -18.5t11.5 -15.5
t14.5 -14.5t16 -8t20.5 -4v0q16 0 29 5.5t23 19t16 23t15 29.5q6 15 14.5 26.5t17.5 11.5q0 3 7 -6q13 -20 19 -26q2 -3 9.5 -16.5t11 -18t11.5 -15t14.5 -15t16 -8.5t20.5 -4v0q19 0 31.5 12.5t22.5 45.5t15 60t14 85v2q3 15 9.5 62.5t10.5 65.5q5 -17 9.5 -39t9.5 -56.5
t6 -38.5q22 -139 40 -173q17 -32 43 -32v0q16 0 29 5.5t23.5 19t16 23t15.5 29.5q5 15 14 26.5t18 11.5q5 0 10 -6.5t11 -17t11 -14.5q1 -3 9 -16.5t11 -18.5t11 -15.5t14.5 -14.5t16.5 -8t21 -4v0q10 0 17.5 9t7.5 23q-10 32 -38 32z" />
    <glyph glyph-name="share" unicode="&#xe68f;" 
d="M717 269q-51 0 -83 -32l-212 121q0 4 3.5 13.5t3.5 12.5q0 19 -7 26l218 121q32 -32 83 -32q48 0 81.5 33.5t33.5 81.5t-33.5 82t-81.5 34q-49 0 -85 -31t-36 -78q0 -19 6 -26l-218 -128q-42 32 -83 32q-48 0 -81.5 -33.5t-33.5 -81.5t33.5 -81.5t81.5 -33.5q51 0 83 32
l218 -122q0 -3 -3 -12.5t-3 -12.5q0 -48 33.5 -82t81.5 -34t81.5 34t33.5 82t-33.5 81.5t-81.5 33.5zM717 672q23 0 37 -15.5t14 -35.5q0 -23 -15.5 -37t-35.5 -14q-23 0 -37 15t-14 35.5t14 36t37 15.5zM307 333q-24 0 -37.5 13.5t-13.5 37.5q0 23 15.5 37t35.5 14
q23 0 37 -15.5t14 -35.5t-14 -35.5t-37 -15.5zM717 96q-23 0 -37 15.5t-14 35.5q0 23 15 37t36 14q23 0 37 -15t14 -35.5t-14 -36t-37 -15.5z" />
    <glyph glyph-name="service" unicode="&#xe690;" 
d="M800 435v51q0 96 -67 163.5t-163 67.5h-116q-96 0 -163 -67.5t-67 -163.5v-57q-38 5 -67 -24t-29 -72v-64q0 -39 29 -67.5t67 -28.5h32q19 0 32 13l160 -77q0 -24 19.5 -41t44.5 -17q29 0 46.5 17.5t17.5 46.5t-17.5 46.5t-46.5 17.5q-19 0 -32 -13l-160 77v128
q0 19 -8.5 33t-23.5 18v64q0 68 49.5 117.5t116.5 49.5h116q67 0 116.5 -49.5t49.5 -117.5v-64q-32 -21 -32 -51v-128q0 -24 20 -44t44 -20h32q38 0 67 29t29 67v64q0 39 -29 67.5t-67 28.5z" />
    <glyph glyph-name="socialfill" unicode="&#xe691;" 
d="M653 531q44 -29 70.5 -75.5t31.5 -103.5q19 0 58 -13q-5 77 -42 141t-99 102q-2 -3 -7 -21.5t-12 -29.5zM614 109q-64 -26 -102 -26q-60 0 -102 26q-13 -19 -39 -45q67 -38 141 -38q83 0 141 38q-26 26 -39 45zM269 352q5 57 31.5 103.5t70.5 75.5l-19 58
q-62 -38 -99 -105t-42 -145q39 13 58 13zM275 320q-53 0 -90.5 -37.5t-37.5 -90.5t37.5 -90.5t90.5 -37.5t90.5 37.5t37.5 90.5t-37.5 90.5t-90.5 37.5v0zM512 736q-53 0 -90.5 -37.5t-37.5 -90.5t37.5 -90.5t90.5 -37.5t90.5 37.5t37.5 90.5t-37.5 90.5t-90.5 37.5v0z
M749 320q-53 0 -90.5 -37.5t-37.5 -90.5t37.5 -90.5t90.5 -37.5t90.5 37.5t37.5 90.5t-37.5 90.5t-90.5 37.5v0zM275 320q-53 0 -90.5 -37.5t-37.5 -90.5t37.5 -90.5t90.5 -37.5t90.5 37.5t37.5 90.5t-37.5 90.5t-90.5 37.5v0z" />
    <glyph glyph-name="social" unicode="&#xe692;" 
d="M653 531q44 -29 70.5 -75.5t31.5 -103.5q19 0 58 -13q-5 77 -42 141t-99 102q-2 -3 -7 -21.5t-12 -29.5zM614 109q-64 -26 -102 -26q-60 0 -102 26q-13 -19 -39 -45q67 -38 141 -38q83 0 141 38q-26 26 -39 45zM269 352q5 57 31.5 103.5t70.5 75.5l-19 58
q-62 -38 -99 -105t-42 -145q39 13 58 13zM275 256q29 0 46.5 -17.5t17.5 -46.5t-17.5 -46.5t-46.5 -17.5t-46.5 17.5t-17.5 46.5t17.5 46.5t46.5 17.5zM275 320q-53 0 -90.5 -37.5t-37.5 -90.5t37.5 -90.5t90.5 -37.5t90.5 37.5t37.5 90.5t-37.5 90.5t-90.5 37.5v0zM512 672
q29 0 46.5 -17.5t17.5 -46.5t-17.5 -46.5t-46.5 -17.5t-46.5 17.5t-17.5 46.5q0 28 19.5 46t44.5 18zM512 736q-53 0 -90.5 -37.5t-37.5 -90.5t37.5 -90.5t90.5 -37.5t90.5 37.5t37.5 90.5t-37.5 90.5t-90.5 37.5v0zM749 256q29 0 46.5 -17.5t17.5 -46.5t-17.5 -46.5
t-46.5 -17.5t-46.5 17.5t-17.5 46.5q0 28 19.5 46t44.5 18zM749 320q-53 0 -90.5 -37.5t-37.5 -90.5t37.5 -90.5t90.5 -37.5t90.5 37.5t37.5 90.5t-37.5 90.5t-90.5 37.5v0zM275 256q29 0 46.5 -17.5t17.5 -46.5t-17.5 -46.5t-46.5 -17.5t-46.5 17.5t-17.5 46.5t17.5 46.5
t46.5 17.5zM275 320q-53 0 -90.5 -37.5t-37.5 -90.5t37.5 -90.5t90.5 -37.5t90.5 37.5t37.5 90.5t-37.5 90.5t-90.5 37.5v0z" />
    <glyph glyph-name="homefill" unicode="&#xe695;" 
d="M851 454l-320 269q-9 10 -21 10t-17 -10l-320 -269q-13 -12 -13 -25v-365q0 -14 9 -23t23 -9h640q14 0 23 9t9 23v365q0 13 -13 25zM602 90h-180v147q0 38 26 63.5t64 25.5t64 -25.5t26 -63.5v-147z" />
    <glyph glyph-name="check" unicode="&#xe69b;" 
d="M186 493h12q56 24 103 70h19l32 -64q10 -19 32 -19q13 0 13 6q14 5 18 17t-5 22l-20 38h116q14 0 23 9t9 23.5t-9 23t-23 8.5h-160l19 39q0 36 -26 44q-27 9 -38 -25q-1 -4 -3.5 -11t-12 -25.5t-22 -34.5t-35 -34.5t-49.5 -29.5q-29 -9 -19 -38q10 -19 26 -19zM870 595
q0 15 -8.5 23.5t-23.5 8.5h-160l20 39q9 26 -26 38q-15 9 -27.5 2.5t-17.5 -21.5q-1 -4 -3 -11t-12 -25.5t-22 -34.5t-35 -34.5t-49 -29.5q-5 0 -9 -4t-4 -8q-11 0 -18.5 -5.5t-7.5 -14.5l-6 -12t-24.5 -30t-48 -41t-79.5 -39t-117 -31q-14 0 -22 -12t-4 -27q0 -9 11 -17
t21 -8h7q18 3 49 13t40 12q0 -10 9.5 -17.5t22.5 -7.5h122q-6 0 -13 -7q-9 -9 -9 -22t9 -22q5 -5 11.5 -14.5t20.5 -38t19 -56.5q0 -7 13 -19h-121q12 12 12 32q-8 37 -24.5 72t-29 51.5t-16.5 16.5q-10 10 -22.5 10t-22 -9.5t-9.5 -22.5t9 -22q5 -5 11.5 -14.5t20.5 -38
t19 -56.5q0 -7 13 -19h-141q-14 0 -23 -9t-9 -23.5t9 -23t23 -8.5h628q14 0 23 8.5t9 23t-9 23.5t-23 9h-128q23 31 37 67.5t17 54t3 25.5q0 14 -8.5 23t-23 9t-23.5 -9t-9 -23q0 -4 -1 -10t-6 -24t-12 -35.5t-22.5 -41t-35.5 -43.5h-76q12 13 12 32q-8 38 -24.5 72.5
t-29 51.5t-16.5 17q0 5 -4 9t-9 4h205q19 0 32 25q37 -14 102 -25h7q10 0 21 8t11 17q0 30 -26 39q-187 32 -269 141q48 28 77 57h19l32 -64q5 -9 12.5 -14t13.5 -5q13 0 13 6q10 5 13.5 18t-0.5 27l-20 39h116q17 -5 30.5 4.5t13.5 20.5zM621 365h-231q77 38 116 102
q38 -64 115 -102z" />
    <glyph glyph-name="likefill" unicode="&#xe69d;" 
d="M781 691q-64 32 -129 18.5t-114 -63.5l-26 -25l-26 25q-48 48 -116.5 61t-126.5 -16q-65 -34 -95.5 -95t-20 -125.5t58.5 -112.5l32 -32l153 -153l103 -103q19 -19 41.5 -19t41.5 19l102 103l154 153l32 32q44 48 53 112.5t-21.5 125.5t-95.5 95z" />
    <glyph glyph-name="lock" unicode="&#xe69e;" 
d="M749 32h-474q-24 0 -40.5 17t-16.5 41v294q0 23 18.5 40.5t38.5 17.5h467q28 0 43 -16.5t15 -41.5v-294q5 -24 -11 -41t-40 -17zM365 474v83q0 53 34.5 87t86.5 34h52q49 0 85 -34.5t36 -86.5v-83h58v83q0 76 -53 127.5t-126 51.5h-52q-75 0 -127 -53t-52 -126v-83h58z
" />
    <glyph glyph-name="closefill" unicode="&#xe6a6;" 
d="M512 768q-158 0 -271 -113t-113 -271t113 -271t271 -113t271 113t113 271t-113 271t-271 113zM672 269q10 -10 10 -22.5t-10 -22.5t-22.5 -10t-22.5 10l-115 115l-115 -115q-10 -10 -22.5 -10t-22.5 10t-10 22.5t10 22.5l115 115l-115 115q-10 10 -10 22.5t10 22.5
t22.5 10t22.5 -10l115 -115l115 115q10 10 22.5 10t22.5 -10t10 -22.5t-10 -22.5l-115 -115z" />
    <glyph glyph-name="close" unicode="&#xe6a7;" 
d="M512 768q-158 0 -271 -113t-113 -271t113 -271t271 -113t271 113t113 271t-113 271t-271 113zM512 64q-134 0 -227 93t-93 227t93 227t227 93t227 -93t93 -227t-93 -227t-227 -93zM672 544q-10 10 -22.5 10t-22.5 -10l-115 -115l-115 115q-10 10 -22.5 10t-22.5 -10
t-10 -22.5t10 -22.5l115 -115l-115 -115q-10 -10 -10 -22.5t10 -22.5t22.5 -10t22.5 10l115 115l115 -115q10 -10 22.5 -10t22.5 10t10 22.5t-10 22.5l-115 115l115 115q10 10 10 22.5t-10 22.5z" />
    <glyph glyph-name="rmb" unicode="&#xe6b0;" 
d="M800 244h-256v128h256q14 0 23 9t9 23t-9 23t-23 9h-243l230 230q10 10 10 23t-9.5 22.5t-22.5 9.5t-23 -10l-230 -230l-230 237q-10 9 -23 9t-22.5 -9.5t-9.5 -22.5t10 -22l230 -237h-243q-14 0 -23 -9t-9 -23t9 -23t23 -9h256v-128h-256q-14 0 -23 -9t-9 -23t9 -23
t23 -9h256v-160q0 -14 9 -23t23 -9t23 9t9 23v160h256q14 0 23 9t9 23t-9 23t-23 9z" />
    <glyph glyph-name="planefill" unicode="&#xe6b2;" 
d="M851 730q-21 10 -32 0l-640 -320q-9 0 -14 -8t-5 -18t4 -18t9 -8l153 -96q22 -10 39 7l339 307l13 -6l-307 -327q-7 -6 -7 -19v-141q0 -22 19 -32q17 -8 32 7l77 76l154 -102q6 -6 19 -6h13q19 9 19 25l128 640q0 12 -0.5 17.5t-3.5 12t-9 9.5z" />
    <glyph glyph-name="computer" unicode="&#xe6b3;" 
d="M832 736h-640q-28 0 -46 -19.5t-18 -44.5v-448q0 -28 19.5 -46t44.5 -18h256v-64h-96q-14 0 -23 -9t-9 -23t9 -23t23 -9h320q14 0 23 9t9 23t-9 23t-23 9h-96v64h256q28 0 46 19.5t18 44.5v448q0 24 -20 44t-44 20zM832 224h-640v448h640v0v-448z" />
    <glyph glyph-name="ascend" unicode="&#xe6b4;" 
d="M678 486l-147 192q-5 10 -17 10t-21 -10l-147 -192q-5 -15 0 -26.5t19 -11.5h83v-352q0 -14 9 -23t23 -9h64q14 0 23 9t9 23v352h83q14 0 19.5 12t-0.5 26z" />
    <glyph glyph-name="defaultsort" unicode="&#xe6b5;" 
d="M659 307h-294q-15 0 -21.5 -12t2.5 -26l147 -192q5 -10 17 -10t21 10l147 192q6 10 0.5 24t-19.5 14zM365 448h294q15 0 21.5 12t-2.5 26l-147 192q-5 10 -17 10t-21 -10l-147 -192q-5 -15 0 -26.5t19 -11.5z" />
    <glyph glyph-name="falling" unicode="&#xe6b6;" 
d="M659 307h-83v352q0 15 -9 23.5t-23 8.5h-64q-13 0 -22.5 -10.5t-9.5 -21.5v-352h-83q-15 0 -21.5 -12t2.5 -26l147 -192q5 -10 17 -10t21 10l147 192q6 10 0.5 24t-19.5 14z" />
    <glyph glyph-name="jinbi" unicode="&#xe6c8;" 
d="M512 416q88 0 166 17.5t131 55t53 86.5t-53 86.5t-131 55t-166 17.5t-166 -17.5t-131 -55t-53 -86.5t53 -86.5t131 -55t166 -17.5zM512 670q122 0 204 -31t82 -64t-82 -64t-204 -31t-204 31t-82 64t82 64t204 31zM225.5 441q-10.5 8 -23.5 6t-21 -13q-20 -27 -19 -56
q1 -36 30.5 -66.5t84.5 -51.5q94 -35 223 -35h7.5h7.5q88 1 165.5 20t130 57.5t51.5 87.5q0 23 -13 44q-6 11 -19 14t-24 -3q-12 -7 -15 -19.5t4 -24.5q3 -6 3 -12q1 -15 -19.5 -32t-56 -32t-91 -25t-117.5 -12q-128 -1 -214 32q-34 13 -54 29t-20 30q0 8 6 18q8 10 6 23
t-12.5 21zM801 252.5q-11 -7.5 -13.5 -20t5.5 -23.5q5 -9 5 -16q0 -33 -82 -64t-204 -31t-204 31t-82 64q0 7 5 15q7 11 4.5 24t-13.5 20t-24 4.5t-20 -13.5q-16 -24 -16 -50q0 -49 53 -86.5t131 -55t166 -17.5t166 17.5t131 55t53 86.5q0 27 -16 51q-8 11 -21 13.5t-24 -5z
" />
    <glyph glyph-name="iconfont5" unicode="&#xe63a;" 
d="M267 280l57 46l114 -85l18.5 18.5t47 44t70.5 61t83.5 62t91.5 54.5l22 -24q-8 -7 -21.5 -19t-51.5 -50.5t-72.5 -79t-75 -101t-68.5 -118.5zM202 603v-370q0 -19 0.5 -31.5t7 -40.5t17.5 -49.5t34 -52.5t55.5 -57.5t83.5 -56.5t116 -55q65 25 116.5 55t83.5 56.5
t55.5 57.5t34.5 52.5t17 49.5t6.5 40.5t0.5 31.5v370q-80 0 -149.5 18.5t-103.5 37t-61 39.5q-26 -21 -60 -39.5t-104 -37t-150 -18.5zM516 -170l-10 4q-93 36 -161 79t-105 82.5t-59 85t-28.5 79.5t-6.5 73v427l29 -1q63 -2 119.5 7.5t90.5 22t62 29.5t36.5 24.5t12.5 11.5
l20 22l21 -22q4 -5 11 -11t34 -22.5t58 -29t83.5 -22.5t109.5 -10v0h24l29 1v-427q0 -39 -6 -73t-28 -79.5t-59.5 -85t-105.5 -82.5t-161 -79z" />
    <glyph glyph-name="jiangli2" unicode="&#xe6d1;" 
d="M860 117l-96 166q68 86 68 197q0 132 -94 226t-226 94t-226 -94t-94 -226q0 -122 81 -212l-87 -151q-18 -31 4 -59.5t56 -18.5l57 15l15 -57q5 -16 17 -26.5t28 -12.5q4 -1 7 -1q31 0 47 27l102 176h3h5l102 -176q15 -27 46 -27q3 0 7 1q16 2 28.5 12.5t16.5 26.5l15 57
l57 -15q35 -10 57 19t4 59zM331 661q75 75 181 75t181 -75t75 -181q0 -86 -52 -154l-15 -17q-65 -71 -161 -82l-22 -3l-16 1q-98 4 -167 71l-11 10q-68 74 -68 174q0 106 75 181zM374 38l-14 51q-5 18 -21 27q-10 6 -22 6q-6 0 -12 -1l-51 -14l67 116q57 -43 127 -57z
M740 121q-17 4 -33.5 -5t-20.5 -27l-14 -52l-77 134q68 18 123 64l74 -128zM512 336q60 0 102 42t42 102t-42 102t-102 42t-102 -42t-42 -102t42 -102t102 -42zM512 560q33 0 56.5 -23.5t23.5 -56.5t-23.5 -56.5t-56.5 -23.5t-56.5 23.5t-23.5 56.5t23.5 56.5t56.5 23.5z
" />
    <glyph glyph-name="xiangshang3" unicode="&#xe76f;" 
d="M512 -64q-185 0 -316.5 131.5t-131.5 316.5t131.5 316.5t316.5 131.5t316.5 -131.5t131.5 -316.5t-131.5 -316.5t-316.5 -131.5zM512 768q-159 0 -271.5 -112.5t-112.5 -271.5t112.5 -271.5t271.5 -112.5t271.5 112.5t112.5 271.5t-112.5 271.5t-271.5 112.5zM694 438
l-158 160q-15 15 -35 7l-1 -0.5l-1 -0.5q-6 -3 -8 -6v0v0l-160 -159q-9 -9 -9 -22.5t9 -23t22.5 -9.5t22.5 10l104 103v-305q0 -13 9.5 -22.5t22.5 -9.5t22.5 9.5t9.5 22.5v307l105 -106q9 -10 23 -10q13 0 22.5 9.5t9.5 22.5t-10 23z" />
    <glyph glyph-name="xiangxia5" unicode="&#xe774;" 
d="M512 -64q-185 0 -316.5 131.5t-131.5 316.5t131.5 316.5t316.5 131.5t316.5 -131.5t131.5 -316.5t-131.5 -316.5t-316.5 -131.5zM512 768q-159 0 -271.5 -112.5t-112.5 -271.5t112.5 -271.5t271.5 -112.5t271.5 112.5t112.5 271.5t-112.5 271.5t-271.5 112.5z
M694.5 373.5q-9.5 9.5 -23 9.5t-22.5 -9l-105 -104v307q0 13 -9.5 22.5t-22.5 9.5t-22.5 -9.5t-9.5 -22.5v-309l-105 107q-10 9 -23 9.5t-22.5 -9t-9.5 -23t9 -22.5l160 -161q9 -10 23 -10q13 0 22 9v1v0l160 159q10 10 10 23t-9.5 22.5z" />
    <glyph glyph-name="xiangyou2" unicode="&#xe776;" 
d="M512 -64q-185 0 -316.5 131.5t-131.5 316.5t131.5 316.5t316.5 131.5t316.5 -131.5t131.5 -316.5t-131.5 -316.5t-316.5 -131.5zM512 768q-159 0 -271.5 -112.5t-112.5 -271.5t112.5 -271.5t271.5 -112.5t271.5 112.5t112.5 271.5t-112.5 271.5t-271.5 112.5zM733 395v0
q-3 6 -7 10v0v0l-159 160q-9 9 -22.5 9t-23 -9t-9.5 -22.5t10 -22.5l103 -104h-305q-13 0 -22.5 -9.5t-9.5 -22.5t9.5 -22.5t22.5 -9.5h307l-106 -105q-10 -9 -10 -22.5t9.5 -23t22.5 -9.5t23 10l160 158q15 15 7 35z" />
    <glyph glyph-name="xiangyou3" unicode="&#xe778;" 
d="M512 -64q-185 0 -316.5 131.5t-131.5 316.5t131.5 316.5t316.5 131.5t316.5 -131.5t131.5 -316.5t-131.5 -316.5t-316.5 -131.5zM512 768q-159 0 -271.5 -112.5t-112.5 -271.5t112.5 -271.5t271.5 -112.5t271.5 112.5t112.5 271.5t-112.5 271.5t-271.5 112.5zM669 395v0
q-3 6 -7 10v0v0l-159 160q-9 9 -22.5 9t-23 -9t-9.5 -22.5t10 -22.5l136 -137l-138 -136q-9 -9 -9 -22.5t9.5 -23t22.5 -9.5t22 10l161 158q15 15 7 35z" />
    <glyph glyph-name="xiangzuo2" unicode="&#xe77a;" 
d="M512 -64q-185 0 -316.5 131.5t-131.5 316.5t131.5 316.5t316.5 131.5t316.5 -131.5t131.5 -316.5t-131.5 -316.5t-316.5 -131.5zM512 768q-159 0 -271.5 -112.5t-112.5 -271.5t112.5 -271.5t271.5 -112.5t271.5 112.5t112.5 271.5t-112.5 271.5t-271.5 112.5zM290 372
l1 -1q2 -6 6 -10v0v0l159 -159q10 -10 23 -10t22.5 9.5t9.5 22.5t-9 23l-104 103h305q14 0 23 9.5t9 23t-9 22.5t-23 9h-306l106 105q9 10 9 23t-9 22.5t-23 9.5q-13 0 -22 -9l-161 -159q-15 -15 -7 -34z" />
    <glyph glyph-name="gouwuche" unicode="&#xe63f;" 
d="M246 -16q0 28 20 47.5t47.5 19.5t47.5 -19.5t20 -47.5t-20 -47.5t-47.5 -19.5t-47.5 19.5t-20 47.5zM717 -16q0 28 19.5 47.5t47.5 19.5t47.5 -19.5t19.5 -47.5t-19.5 -47.5t-47.5 -19.5t-47.5 19.5t-19.5 47.5zM906 131h-538q-21 0 -40 16.5t-24 38.5l-96 566
q-7 41 -40.5 68.5t-74.5 27.5h-23q-9 0 -17 -8t-8 -17.5t8 -17.5t17 -8h23q21 0 40 -16.5t24 -38.5l96 -566q7 -41 40.5 -68.5t74.5 -27.5h538q9 0 17 8t8 18t-7 17.5t-18 7.5zM880 717h-573q-9 0 -17 -8t-8 -17.5t8 -17.5t17 -8h573q19 0 28 -11.5t4 -30.5l-70 -282
q-5 -23 -27 -40.5t-47 -19.5l-397 -29q-10 0 -17.5 -8.5t-4.5 -20.5q0 -10 8.5 -17.5t20.5 -4.5l396 28q41 3 75 32t44 68l70 281q10 41 -15 73.5t-68 32.5z" />
    <glyph glyph-name="gouwuchetianjia" unicode="&#xe641;" 
d="M803 0zM739 0q0 26 19 45t45.5 19t45 -19t18.5 -45t-18.5 -45t-45 -19t-45.5 19t-19 45zM346 0zM282 0q0 26 18.5 45t45 19t45.5 -19t19 -45t-19 -45t-45.5 -19t-45 19t-18.5 45zM774 778q-81 0 -139.5 -58.5t-58.5 -140t58.5 -140t140 -58.5t140 58.5t58.5 139.5
q2 82 -56.5 140.5t-142.5 58.5zM774 432q-62 0 -106 43.5t-44 103.5q0 62 44 104.5t106 42.5q63 0 107 -43.5t44 -103.5q0 -62 -44 -104.5t-107 -42.5zM368 246q0 -9 8 -15.5t18 -6.5l492 42q10 0 16.5 7.5t6.5 17.5t-8 16.5t-18 6.5l-493 -42q-10 0 -17 -7t-5 -19zM845 605
h-48v48q0 10 -7 17.5t-19 7.5q-25 0 -25 -25v-48h-48q-11 0 -18.5 -7t-7.5 -19q0 -10 7 -17.5t19 -7.5h48v-48q0 -11 7 -18.5t18 -7.5q26 0 26 26v48h48q10 0 17.5 7t7.5 18q-2 11 -9 18.5t-16 7.5zM330 704h188q11 0 18.5 7t7.5 19q0 10 -7 17.5t-19 7.5h-188
q-11 0 -18.5 -7t-7.5 -18.5t7.5 -18.5t18.5 -7zM886 154h-524q-21 0 -40 15.5t-24 35.5l-93 547q-7 39 -39.5 66t-72.5 27h-23q-10 0 -17.5 -7t-7.5 -19q0 -10 7 -17.5t18 -7.5h23q22 0 40.5 -15t23.5 -37l93 -547q7 -39 39 -66t73 -27h524q11 0 18.5 7.5t7.5 18.5
q0 10 -8 18t-18 8z" />
    <glyph glyph-name="cuowu" unicode="&#xe642;" 
d="M547 384l416 416q7 7 7 17.5t-7 17.5t-17.5 7t-17.5 -7l-416 -416l-416 416q-7 7 -17.5 7t-17.5 -7t-7 -17.5t7 -17.5l416 -416l-416 -416q-7 -7 -7 -17.5t7 -17.5t17.5 -7t17.5 7l416 416l416 -416q7 -7 17.5 -7t17.5 7t7 17.5t-7 17.5z" />
    <glyph glyph-name="erweima" unicode="&#xe643;" 
d="M384 832h-250q-37 0 -63 -26.5t-26 -63.5v-227q0 -38 26.5 -63.5t62.5 -25.5h250q38 0 64 26.5t26 62.5v227q0 37 -26 63.5t-64 26.5zM429 515q0 -19 -13 -32t-32 -13h-250q-19 0 -31.5 13t-12.5 32v227q0 20 12.5 32.5t31.5 12.5h250q19 0 32 -12.5t13 -32.5v-227z
M192 704h134v-134h-134v134zM378 352h-244q-36 0 -61 -25.5t-25 -64.5v-220q0 -37 25.5 -63.5t60.5 -26.5h244q36 0 61 25.5t25 64.5v220q2 38 -24 64t-62 26zM422 45q0 -19 -12.5 -32t-31.5 -13h-244q-19 0 -31.5 13t-12.5 32v221q0 19 12.5 31.5t31.5 12.5h244
q19 0 31.5 -12.5t12.5 -31.5v-221zM192 227h131v-131h-131v131zM634 426h249q38 0 64 26.5t26 62.5v227q0 38 -26.5 64t-63.5 26h-249q-38 0 -64 -26.5t-26 -63.5v-227q0 -38 26.5 -63.5t63.5 -25.5zM589 742q0 20 12.5 32.5t32.5 12.5h249q19 0 32 -12.5t13 -32.5v-227
q0 -19 -13 -32t-32 -13h-249q-20 0 -32.5 13t-12.5 32v227zM701 704h134v-134h-134v134zM573 179h137q10 0 16.5 6.5t6.5 16.5v137q0 10 -6.5 16.5t-16.5 6.5h-137q-10 0 -16.5 -6.5t-6.5 -16.5v-137q0 -10 6.5 -16.5t16.5 -6.5zM886 333v-39q0 -9 8 -17t18 -8h38q10 0 18 8
t8 17v39q0 9 -8 17t-18 8h-38q-10 0 -18 -7t-8 -18zM582 -48h48q10 0 16.5 6.5t6.5 15.5v48q0 10 -6.5 16.5t-16.5 6.5h-48q-9 0 -15.5 -6.5t-6.5 -16.5v-48q0 -9 6.5 -15.5t15.5 -6.5zM944 192h-99q-12 0 -20.5 -8.5t-8.5 -20.5v-45h-48q-14 0 -23 -8.5t-9 -23.5v-99
q0 -12 8.5 -20.5t20.5 -8.5l179 -3q12 0 20.5 8.5t8.5 20.5v179q0 12 -8.5 20.5t-20.5 8.5z" />
    <glyph glyph-name="jushoucang" unicode="&#xe644;" 
d="M909 682q-10 12 -29 32q-159 163 -342 16q-10 -7 -29 -26q-5 5 -14.5 13t-14.5 13q-187 144 -342 -16q-20 -20 -26 -32q-66 -96 -67.5 -194t51 -188t154.5 -178q77 -67 137 -103q32 -19 45 -29q14 -9 19 -9l13 -7q2 -1 7.5 -3t8.5 -3q18 -5 44.5 -2t45.5 15q6 0 16 9
q23 12 44 29q61 36 138 103q103 90 156.5 180.5t51.5 188t-67 191.5zM736 163q-73 -62 -131 -99q-39 -23 -45 -26q-13 -6 -16 -9q-6 -3 -26 -10h-9h-16h-3v0v0q-4 0 -4 3q-1 0 -4.5 2t-4.5 2q-3 3 -16 9.5t-45 25.5q-78 50 -131 99q-288 257 -131 490q3 4 11 12t11 13
q124 133 275 13q10 -6 23 -19v0l28 -32v0l2 -1l1 -2h1v-1l1 -1l2 -2v0v0v0l1 1l1 2l1 1l1 1h1l1 1l1 1v1l1 1l1 1l1 1l1 1l1 1l1 1l1 1l2 1q25 26 41 39q152 120 276 -13q3 -5 11 -13t11 -13q58 -76 59.5 -159t-46.5 -162.5t-141 -161.5z" />
    <glyph glyph-name="lajixiang" unicode="&#xe645;" 
d="M944 704h-189v45q0 41 -29 70t-70 29h-294q-41 0 -70.5 -29t-29.5 -70v-45h-179q-10 0 -17.5 -7t-7.5 -19q0 -10 7 -17.5t18 -7.5h61v0v-634q0 -41 29 -70t70 -29h551q40 0 69.5 29t29.5 70v631v3h51q10 0 18 7t8 18q-7 26 -26 26zM317 749q0 19 14.5 33.5t33.5 14.5h294
q19 0 33.5 -14.5t14.5 -33.5v-45h-390v45zM842 29q0 -23 -12 -40.5t-30 -17.5h-550q-21 0 -38 13.5t-17 31.5l3 637h644v0v-624zM368 515q-26 0 -26 -25v-343q0 -11 8 -18t18 -7t18 7t8 18v343q-7 25 -26 25zM528 515q-26 0 -26 -25v-343q0 -11 8 -18t18 -7t18 7t8 18v343
q-7 25 -26 25zM688 515q-26 0 -26 -25v-343q0 -11 8 -18t18 -7t18 7t8 18v343q-7 25 -26 25z" />
    <glyph glyph-name="lianjie" unicode="&#xe646;" 
d="M589 422l-10 7q-7 7 -17 5.5t-15 -8.5q-7 -8 -5.5 -17.5t8.5 -14.5l10 -7q14 -12 14.5 -29.5t-11.5 -34.5l-13 -16q-7 -7 -5.5 -17t9.5 -15q7 -7 17 -5.5t15 8.5l12 16q25 29 22 67t-31 61zM448 176l-141 -176q-12 -14 -30.5 -16.5t-30.5 6.5l-137 112q-14 12 -15 30
t12 34l265 327q12 14 30.5 16.5t30.5 -7.5l13 -9q7 -7 17 -5.5t15 8.5q7 7 5.5 17t-8.5 15l-13 10q-29 23 -66.5 18t-61.5 -34l-266 -327q-24 -28 -21.5 -66t31.5 -62l137 -112q30 -23 67 -18t61 34l141 176q7 8 5.5 17.5t-8.5 14.5q-14 15 -32 -3zM944 621l-128 105
q-31 24 -69 20.5t-62 -32.5l-263 -327q-23 -31 -19.5 -69t32.5 -62l128 -106q32 -23 69.5 -19.5t61.5 32.5l263 327q26 31 22 69t-35 62zM922 518l-263 -326q-12 -14 -31 -16t-36 10l-128 105q-14 12 -16 31.5t10 35.5l262 327q12 14 31 16t36 -10l128 -105q15 -12 17 -31.5
t-10 -36.5z" />
    <glyph glyph-name="naozhong" unicode="&#xe648;" 
d="M931 378q0 114 -56.5 211t-152.5 152.5t-210 55.5q-115 0 -211.5 -56.5t-152 -153t-55.5 -209.5q0 -102 45.5 -189.5t123.5 -146.5l-57 -52q-8 -7 -9 -17t6 -18q7 -7 17 -8.5t18 5.5l70 58q94 -55 208 -55q118 0 215 61l3 -3l73 -61q8 -7 18 -5.5t18 8.5q6 8 5 18t-9 17
l-64 55q72 59 114.5 146.5t42.5 186.5zM512 6q-101 0 -186.5 50t-135 135.5t-49.5 186t49.5 186t135 135.5t186.5 50t186.5 -50t135 -135.5t49.5 -186t-49.5 -186t-135 -135.5t-186.5 -50zM208 800q-7 7 -17.5 7t-17.5 -7l-119 -118q-7 -8 -7 -18t7.5 -17.5t17.5 -7.5t18 7
l118 119q7 7 7 17.5t-7 17.5zM970 685l-119 115q-7 7 -17.5 7t-17.5 -7t-7 -17.5t7 -17.5l118 -115q8 -8 18 -8t17.5 7.5t7.5 18t-7 17.5zM707 595l-144 -128q0 -3 -3 -3q-26 6 -35 6q-13 0 -32 -6q0 2 -1.5 3.5t-1.5 2.5l-93 84q-7 7 -17.5 6.5t-17.5 -10.5
q-8 -7 -7.5 -17.5t10.5 -17.5l89 -80q-28 -34 -28 -70q0 -42 29.5 -72.5t72.5 -30.5q41 0 71.5 30t30.5 73q0 36 -25 67l141 125q7 7 7.5 17.5t-4.5 17.5q-25 15 -42 3zM525 314q-22 0 -36.5 14.5t-14.5 36t14.5 36.5t36 15t36.5 -15t15 -36q0 -20 -15 -35.5t-36 -15.5z" />
    <glyph glyph-name="saoyisao" unicode="&#xe649;" 
d="M864 848h-698q-35 0 -59 -26.5t-24 -63.5v-208q0 -10 6.5 -17.5t16.5 -7.5q9 0 15.5 7t6.5 18v208q0 18 11 30t27 12h698q17 0 27.5 -12t10.5 -30v-208q0 -10 6.5 -17.5t16.5 -7.5t16 7t6 18v208q0 36 -24.5 63t-58.5 27zM925 214q-10 0 -16.5 -6.5t-6.5 -18.5v-179
q0 -18 -10.5 -30t-27.5 -12h-698q-16 0 -27 12t-11 30v182q0 10 -6.5 18t-15.5 8q-10 0 -16.5 -7t-6.5 -19v-179q0 -38 24.5 -64t58.5 -26h698q35 0 59 26.5t24 63.5v179q0 10 -6.5 16t-15.5 6zM922 352q9 0 15.5 6.5t6.5 16t-6.5 16t-15.5 6.5h-820q-9 0 -15.5 -6.5
t-6.5 -16t6.5 -16t15.5 -6.5h820z" />
    <glyph glyph-name="shangfan" unicode="&#xe64a;" 
d="M874 477l-356 361q-16 16 -32 0l-355 -368q-16 -16 0 -32q7 -7 16 -7t16 7l317 330v-829q0 -9 6.5 -15.5t16 -6.5t16 6.5t6.5 15.5v823l310 -317q16 -16 32 0q12 7 13 17t-6 15z" />
    <glyph glyph-name="shezhi" unicode="&#xe64b;" 
d="M512 198q76 0 129 54.5t53 131.5t-53.5 131.5t-128.5 54.5q-76 0 -129 -54.5t-53 -131.5t53.5 -131.5t128.5 -54.5v0zM512 250q-55 0 -94.5 39.5t-39.5 94.5t39.5 94.5t94.5 39.5t94.5 -39.5t39.5 -94.5t-39.5 -94.5t-94.5 -39.5v0zM249 53q51 -42 112 -67
q66 60 150.5 60t150.5 -60q65 25 112 67q-19 80 22 163q47 79 128 102q7 45 7 67.5t-7 67.5q-81 24 -128 102q-43 73 -22 163q-51 42 -112 68q-66 -61 -150.5 -61t-150.5 61q-65 -25 -112 -68q19 -80 -22 -163q-48 -78 -128 -102q-7 -45 -7 -67.5t7 -67.5q80 -23 128 -102
q41 -83 22 -163zM361 -62q-87 30 -150 89q-12 12 -7 23q25 74 -16 140q-39 69 -112 84q-16 5 -16 19q-9 43 -9 89q0 42 9 90q5 13 16 19q79 21 112 83q37 64 16 141q-5 17 7 23q62 53 150 89q12 4 22 -6q58 -58 128 -58q80 0 128 58q12 12 23 6q87 -30 150 -89q12 -12 7 -23
q-25 -74 16 -141q39 -68 112 -83q16 -5 16 -19q9 -43 9 -90q0 -41 -9 -89q-5 -14 -16 -19q-79 -21 -112 -84q-37 -63 -16 -140q5 -17 -7 -23q-62 -53 -150 -89q-12 -4 -23 6q-57 58 -128 58q-80 0 -128 -58q-6 -6 -16 -6h-6z" />
    <glyph glyph-name="shengyin" unicode="&#xe64c;" 
d="M784 525q-16 25 -45 54q-7 8 -19 7t-19 -10q-8 -7 -7 -19t10 -19l10 -10q16 -16 25 -35q94 -142 -38 -279q-7 -7 -7 -19t7 -19t19 -7t19 7q55 59 76.5 121t12.5 117.5t-44 110.5zM896 650q-16 25 -54 70q-5 6 -9.5 10.5t-9.5 9t-7 6.5q-7 7 -19 6.5t-19 -10.5
q-8 -7 -7.5 -19t10.5 -19q0 -1 4.5 -4t9 -8t8.5 -10q32 -39 48 -64q175 -265 -70 -519q-7 -7 -7 -19t7 -19t19 -7t19 7q95 99 132.5 203.5t21.5 198.5t-77 187zM483 810l-217 -186h-109q-44 0 -76.5 -32t-32.5 -77v-272q0 -45 31.5 -77t77.5 -32h96l230 -182
q41 -31 73.5 -15t32.5 66v755q0 53 -33.5 69t-72.5 -17zM534 6q0 -16 -3.5 -17.5t-15.5 8.5l-237 185q-6 7 -16 7h-105q-22 0 -38.5 16.5t-16.5 37.5v272q0 22 16.5 38.5t38.5 16.5h118q10 0 16 6l224 192q12 10 14 9t2 -15v-756h3z" />
    <glyph glyph-name="shijian" unicode="&#xe64d;" 
d="M512 832q-94 0 -179.5 -36.5t-147 -98.5t-98 -147.5t-36.5 -178.5t37 -178t98.5 -147t147 -99t178.5 -37t178.5 37t147 99t98.5 147t37 178t-36.5 178.5t-98 147.5t-147 98.5t-179.5 36.5zM512 -45q-112 0 -207 55.5t-150.5 150.5t-55.5 207t55.5 207t150.5 150.5
t207 55.5t207 -55.5t150.5 -150.5t55.5 -207t-55 -207t-150 -150.5t-208 -55.5zM810 352h-279v282q0 9 -6.5 15.5t-16 6.5t-16 -6.5t-6.5 -15.5v-308q0 -9 6.5 -15.5t16.5 -6.5h3h298q9 0 15.5 6.5t6.5 15.5q0 12 -6.5 19t-15.5 7z" />
    <glyph glyph-name="shouhuodizhi" unicode="&#xe64e;" 
d="M518 848q-105 0 -195 -52.5t-142.5 -143.5t-52.5 -198q0 -63 42 -156q36 -74 118 -183q32 -38 109 -121l35 -36q2 -2 5.5 -5t5.5 -4.5t2 -2.5v0q29 -29 70 -29t67 29v0h1l1 1l1 1v1h1l1 1l1 1l1 1v1h1l1 1l1 1l1 1l1 1l1 1l35 36q39 38 109 121q79 94 119 183
q41 83 41 156q4 80 -25 153.5t-81 126t-124 83.5t-151 31zM822 320q-38 -82 -115 -173q-70 -83 -105 -118l-36 -35l-1 -2l-1 -1l-1 -1l-1 -1l-2 -1l-1 -1l-1 -2l-1 -1l-1 -1l-1 -1l-1 -1q-15 -15 -35.5 -15t-35.5 15v0l-1 1l-1 1v0l-1 1l-1 1l-1 1l-2 2l-1 1l-1 1l-1 1v0
l-1 1l-2 2l-35 35q-6 7 -32.5 35t-42.5 46t-30 37q-72 91 -116 173q-38 77 -38 134q0 95 46 174.5t124.5 125.5t171.5 46t172 -46t125 -125.5t46 -174.5q0 -57 -39 -134zM518.5 634q-71.5 0 -120.5 -50.5t-49 -122.5t50 -122.5t119.5 -50.5t119.5 50.5t50 122.5t-49 122.5
t-120.5 50.5zM518.5 339q-50.5 0 -86 36t-35.5 89t35.5 89t86 36t86 -36t35.5 -89t-35.5 -89t-86 -36z" />
    <glyph glyph-name="shouye" unicode="&#xe64f;" 
d="M970 394l-119 112l-323 300q-16 16 -32 0l-314 -297q-4 -5 -9 -10l-119 -112q-16 -16 0 -32q8 -7 16.5 -7t15.5 7l84 80v-393q0 -37 27 -63.5t65 -26.5h84q29 0 49.5 19.5t20.5 47.5v218h99h99v-218q0 -26 21 -46.5t50 -20.5h83q39 0 66 26t27 64v396l80 -73q16 -16 32 0
q5 4 4.5 13t-7.5 16zM810 38q0 -19 -13 -31.5t-32 -12.5h-83q-10 0 -16.5 6t-6.5 16v240q0 10 -6.5 16t-15.5 6h-122h-121q-10 0 -16.5 -6t-6.5 -16v-240q0 -10 -6.5 -16t-15.5 -6h-83q-20 0 -32.5 12.5t-12.5 31.5v439l294 281l295 -281v-439z" />
    <glyph glyph-name="shuaxin" unicode="&#xe650;" 
d="M960 266q-20 5 -32 -13q-28 -76 -85.5 -133.5t-131 -87t-158.5 -34t-169 27.5q-83 29 -147 84.5t-98.5 124.5t-42.5 147.5t22 155.5q29 75 86.5 132.5t131 87.5t158.5 34t168 -27q70 -24 128 -68.5t96 -104.5h-92q-10 0 -18 -6.5t-8 -15.5q0 -10 7 -16.5t19 -6.5h153
q10 0 18 6.5t8 16.5v140q0 10 -7 16.5t-19 6.5q-10 0 -17.5 -6.5t-7.5 -16.5v-89q-88 131 -247 189q-93 33 -187.5 28t-176 -38.5t-146.5 -98t-98 -147.5q-25 -68 -26.5 -139.5t21 -137.5t63.5 -123.5t102 -102.5t135 -70q93 -34 187.5 -28.5t176 39t146.5 97.5t98 148
q6 7 3 15.5t-13 13.5z" />
    <glyph glyph-name="sousuo" unicode="&#xe651;" 
d="M966 -29l-230 227q96 107 96 256q0 107 -52.5 197t-142.5 142t-195 52q-107 0 -197 -52.5t-142 -142.5t-52 -196t52.5 -196t142.5 -142t196 -52q149 0 256 96l230 -227q7 -7 19 -7t19 7q10 9 10 20t-10 18zM102 454.5q0 91.5 45 169.5t123.5 124t171.5 46t171 -45.5
t123 -123.5t45 -171q0 -66 -24.5 -126.5t-68.5 -106.5q-2 0 -3.5 -1.5t-2.5 -1.5q-4 -4 -4 -7q-46 -44 -106.5 -68.5t-126.5 -24.5q-93 -1 -172 44t-125 123t-46 169.5z" />
    <glyph glyph-name="suo" unicode="&#xe663;" 
d="M861 448h-10q7 38 7 64q0 93 -46.5 170t-125.5 121.5t-174 44.5t-174 -44.5t-125.5 -121.5t-46.5 -170q0 -19 7 -64h-13q-41 0 -68.5 -27.5t-27.5 -68.5v-320q0 -41 27.5 -68.5t68.5 -27.5h701q41 0 68.5 27.5t27.5 68.5v320q0 41 -27.5 68.5t-68.5 27.5zM221 451
q-7 39 -7 61q0 122 86 205t209 83q122 0 208 -84t86 -204q0 -26 -6 -64h-32h-541zM909 32q0 -19 -14.5 -33.5t-33.5 -14.5h-701q-19 0 -33.5 14.5t-14.5 33.5v320q0 19 14.5 33.5t33.5 14.5h608h90q19 0 33.5 -14.5t14.5 -33.5v-320h3zM512 304q-10 0 -18 -7t-8 -19v-195
q0 -10 7.5 -17.5t18.5 -7.5q26 0 26 25v195q0 10 -8 18t-18 8z" />
    <glyph glyph-name="tishi" unicode="&#xe664;" 
d="M509 851q-94 0 -180 -36.5t-148.5 -99t-99 -148.5t-36.5 -180t36.5 -180t99 -148t148.5 -99t180 -37t180 37t148 99t99 148t37 180t-37 180t-99 148.5t-148 99t-180 36.5zM508.5 -29q-113.5 0 -209 55.5t-151 151.5t-55.5 209.5t55.5 209t151 151t209 55.5t209.5 -55.5
t151.5 -151t55.5 -209t-55.5 -209.5t-151.5 -151.5t-209.5 -55.5zM521.5 243q9.5 0 16 6.5t6.5 16.5v428q0 10 -6.5 16.5t-16 6.5t-16 -6.5t-6.5 -16.5v-428q-2 -8 5.5 -15.5t17 -7.5zM522 147zM486 147.5q0 14.5 10.5 24.5t25 10t25 -10t10.5 -24.5t-10.5 -25t-25 -10.5
t-25 10.5t-10.5 25z" />
    <glyph glyph-name="wancheng" unicode="&#xe665;" 
d="M486 266q-14 -15 -33.5 -15.5t-33.5 11.5l-137 132l-32 -36l137 -131q29 -26 67.5 -25.5t67.5 28.5l281 298l-35 32zM512 845q-93 0 -178.5 -36.5t-147 -98t-98.5 -147t-37 -179.5t36.5 -179.5t98 -147t147 -98t179.5 -36.5t179.5 36.5t147 98t98 147t36.5 179.5
t-37 179.5t-98.5 147t-147 98t-178.5 36.5zM512 -29q-112 0 -207 55.5t-150.5 150.5t-55.5 207t55.5 207t150.5 150.5t207 55.5t207 -55.5t150.5 -150.5t55.5 -207t-55.5 -207t-150.5 -150.5t-207 -55.5z" />
    <glyph glyph-name="wodedingdan" unicode="&#xe655;" 
d="M883 835h-89q-11 0 -18.5 -7t-7.5 -18q0 -26 26 -26h89q19 0 33.5 -14.5t14.5 -33.5v-714q0 -19 -14.5 -33.5t-33.5 -14.5h-736q-19 0 -33.5 14.5t-14.5 33.5v714q0 19 14.5 33.5t33.5 14.5h99q11 0 18.5 7t7.5 19q0 25 -26 25h-99q-41 0 -68.5 -27.5t-27.5 -68.5v-713
q0 -41 27.5 -68.5t68.5 -27.5h736q41 0 68.5 27.5t27.5 68.5v713q0 40 -28.5 68t-67.5 28zM394 787h240q10 0 17.5 7t7.5 19q0 25 -25 25h-240q-11 0 -18.5 -7t-7.5 -18.5t7.5 -18.5t18.5 -7zM294 550h464q11 0 18.5 7.5t7.5 18.5q0 26 -26 26h-464q-10 0 -17.5 -7.5
t-7.5 -18.5q0 -26 25 -26zM294 355h464q11 0 18.5 7t7.5 19q0 25 -26 25h-464q-10 0 -17.5 -7t-7.5 -18q0 -26 25 -26zM294 160h464q11 0 18.5 7t7.5 19q0 25 -26 25h-464q-10 0 -17.5 -7t-7.5 -18q0 -26 25 -26z" />
    <glyph glyph-name="wodefankui" unicode="&#xe666;" 
d="M883 813h-742q-38 0 -65.5 -27t-27.5 -63v-582q0 -36 27.5 -63t65.5 -27h256q6 -6 16 -19q6 -6 9 -13q7 -9 10 -13q23 -35 42 -51t44 -16q26 0 47 16.5t43 50.5l29 45h249q39 0 66 27t27 63v582q-2 39 -29.5 64.5t-66.5 25.5zM931 141q0 -19 -12.5 -32t-32.5 -13h-252
q-10 0 -16 -3q-20 -13 -29 -29q-3 -6 -23 -35v0q-26 -45 -48 -45q-16 0 -48 45q-1 1 -2.5 4.5t-3.5 6t-3 2.5q-3 6 -10 12q-16 21 -27 30t-27 9h-256q-19 0 -32 12.5t-13 32.5v582q0 19 14 32t34 13h742q20 0 34 -13t14 -32v-579h-3zM221 413q0 21 15 36t36 15t36 -15
t15 -36t-15 -36t-36 -15t-36 15t-15 36zM461 413q0 21 15 36t36 15t36 -15t15 -36t-15 -36t-36 -15t-36 15t-15 36zM698 413q0 21 15 36t36 15t36 -15t15 -36t-15 -36t-36 -15t-36 15t-15 36z" />
    <glyph glyph-name="wodehongbao" unicode="&#xe667;" 
d="M866 794v0v0q-31 40 -78 40h-574q-42 0 -70.5 -28.5t-28.5 -70.5v-699q0 -41 28.5 -70t70.5 -29h574q42 0 70.5 29t28.5 70v699q0 37 -21 59zM788 784q9 0 13 -3l-292 -186l-314 186q7 3 19 3h574zM838 33q0 -21 -14.5 -35t-35.5 -14h-574q-21 0 -35.5 14t-14.5 35v699v6
l332 -196q11 -7 25 0l317 202q0 -2 1.5 -6.5t1.5 -5.5v-699h-3zM639 334q10 0 17.5 8t7.5 17t-7.5 17t-17.5 8h-84l72 71q7 7 7 17.5t-7 17t-17 6.5t-17 -6l-81 -81h-3v0l-78 77q-7 7 -17 7t-17 -7t-7 -17t7 -17l68 -68h-74q-9 0 -17 -8t-8 -17t8 -17t17 -8h93v-74h-93
q-9 0 -17 -8t-8 -17t8 -17t17 -8h93v-90q0 -9 8 -17t17 -8t17 8t8 17v90h108q10 0 17.5 8t7.5 17t-7.5 17t-17.5 8h-108v74h105z" />
    <glyph glyph-name="wodejuhuasuan" unicode="&#xe668;" 
d="M621 410q42 29 67.5 75t25.5 97q0 89 -62.5 150.5t-149.5 61.5q-86 0 -148.5 -62.5t-62.5 -149.5q0 -54 26.5 -101.5t69.5 -74.5q-156 -36 -253.5 -150t-85.5 -256v0v0q0 -10 3 -13q3 -5 9 -9t10 -4h880q8 0 14 6.5t9 16.5v0v0v0q9 98 -35.5 186t-128 147t-188.5 80z
M336 585.5q0 67.5 48 115.5t115 48t115 -48t48 -115.5t-48 -115.5t-115 -48t-115 48t-48 115.5zM96 26q-5 94 49.5 174.5t151.5 127t212 46.5h3q115 0 212 -46t152 -126.5t52 -175.5h-832z" />
    <glyph glyph-name="wodeyouhuiquan" unicode="&#xe669;" 
d="M877 730h-727q-43 0 -72.5 -30t-29.5 -73v-118v0v-48h26q20 0 35.5 -15.5t15.5 -39.5q0 -22 -15 -38t-36 -16h-26v-45v0v-6v-119q0 -43 29.5 -72.5t72.5 -29.5h727q43 0 72.5 29.5t29.5 72.5v119v6v45h-22q-20 0 -35.5 15.5t-15.5 38.5q0 22 14.5 38.5t36.5 16.5h1h1h1h1
h2h1h2h1h2h2h8v51v3v115q-2 41 -32 70.5t-70 29.5zM851 410q0 -36 21 -63t53 -37v-121q0 -22 -15 -36.5t-36 -14.5h-727q-21 0 -36 14.5t-15 36.5v118v0q36 5 56.5 34.5t20.5 68.5q0 36 -22 65.5t-55 36.5v115q0 22 15 36.5t36 14.5h727q21 0 36 -14.5t15 -36.5v-118
q-32 -7 -53 -35.5t-21 -63.5zM614 406q10 0 18 8t8 18t-8 18t-18 8h-67l58 57q7 7 7 17.5t-7 18t-17.5 7.5t-17.5 -8l-58 -57l-58 57q-7 8 -17.5 8t-17.5 -7.5t-7 -18t7 -17.5l58 -57h-64q-10 0 -18 -8t-8 -18t8 -18t18 -8h80v-51h-80q-10 0 -18 -8t-8 -17.5t8 -17.5t18 -8
h80v-51q0 -10 8 -18t17.5 -8t17.5 8t8 18v51h77q9 0 17 8t8 17.5t-8 17.5t-17 8h-77v51h70z" />
    <glyph glyph-name="xiafan" unicode="&#xe66a;" 
d="M922 333q-8 7 -18 7t-18 -7l-342 -333v822q0 10 -7 16.5t-18.5 6.5t-18.5 -6.5t-7 -16.5v-822l-343 339q-7 7 -17.5 7t-17.5 -7q-16 -16 0 -32l384 -377q7 -7 19 -7v0h7h3q3 0 10 7l380 371q10 4 10.5 14.5t-6.5 17.5z" />
    <glyph glyph-name="xiala" unicode="&#xe66b;" 
d="M787 515q-13 13 -35 13l-480 -3q-22 0 -35 -13q-15 -14 -15 -33.5t15 -33.5l240 -240v0v0q1 -2 6 -5t7 -5l3 -3q12 -5 27 -2.5t24 12.5l240 243q16 16 16 35.5t-13 34.5z" />
    <glyph glyph-name="xiangshangjiantou" unicode="&#xe66c;" 
d="M966 227l-435 432q-7 7 -17.5 7t-17.5 -7l-442 -432q-7 -7 -7 -17.5t7.5 -17.5t17.5 -7t18 7l425 416l416 -416q7 -7 17.5 -7t18 7t7.5 17.5t-8 17.5z" />
    <glyph glyph-name="xiangxiajiantou" unicode="&#xe66d;" 
d="M966 573q-7 7 -17.5 7t-17.5 -7l-416 -416l-425 416q-8 7 -18 7t-17.5 -7t-7.5 -17.5t7 -17.5l442 -432q7 -8 17.5 -8t17.5 8l435 432q15 20 0 35z" />
    <glyph glyph-name="xiangyoujiantou" unicode="&#xe66e;" 
d="M762 406l-432 436q-8 7 -18 7t-17.5 -7.5t-7.5 -17.5t7 -18l416 -416l-416 -425q-7 -7 -7 -17.5t7.5 -18t17.5 -7.5t18 8l432 441q7 7 7 17.5t-7 17.5z" />
    <glyph glyph-name="xiangzuojiantou" unicode="&#xe66f;" 
d="M730 -35l-416 425l416 416q7 8 7 18t-7.5 17.5t-17.5 7.5t-18 -7l-432 -436q-7 -7 -7 -17.5t7 -17.5l432 -441q8 -8 18 -8t17.5 7.5t7.5 18t-7 17.5z" />
    <glyph glyph-name="yanjing" unicode="&#xe670;" 
d="M515 672q-215 0 -399 -194q-61 -64 -94 -120q5 -6 13.5 -17t36 -42.5t57.5 -60t75.5 -64t91.5 -60.5t104 -42.5t115 -17.5t115 17t105 44t91 59t76 64.5t56.5 59.5t37.5 44l12 16q-4 7 -11.5 18.5t-32.5 44t-53 62t-72.5 65.5t-91 62t-108 44t-124.5 18zM832 243
q-167 -141 -320 -141q-159 0 -320 141q-70 64 -99 99q-3 4 -8 10t-8 10q1 3 6 9.5t7 9.5q38 53 92 102q160 144 330 144t330 -144q35 -32 92 -102q2 -3 7 -9.5t6 -9.5q-3 -7 -16 -20q-59 -66 -99 -99zM512 550q-71 0 -120.5 -49.5t-49.5 -119.5q0 -72 50 -121t120 -49
q71 0 120.5 50t49.5 120q0 69 -50 119t-120 50zM512 256q-50 0 -86 35.5t-36 86t36 86t86 35.5t86 -35.5t36 -85.5q0 -49 -36 -85.5t-86 -36.5z" />
    <glyph glyph-name="yijianfankui" unicode="&#xe671;" 
d="M874 621q-12 0 -19 -8t-7 -18v-550q0 -22 -15 -36.5t-36 -14.5h-643q-22 0 -37 14.5t-15 36.5v646q0 22 15 36.5t37 14.5h521q12 0 19 8t7 18t-8 18t-18 8h-521q-43 0 -74.5 -31t-31.5 -72v-646q0 -43 31 -73t75 -30h643q43 0 74 30t31 73v550q-5 26 -28 26zM483 534
h-278q-12 0 -19 -7.5t-7 -17.5t8 -18t18 -8h278q12 0 19 8t7 18q0 11 -8 18t-18 7zM179 329.5q0 -9.5 8 -17.5t18 -8h461q11 0 18 7.5t7 18.5q0 9 -8 17t-17 8h-461q-10 0 -18 -8t-8 -17.5zM969.5 838.5q-7.5 7.5 -18 7.5t-20.5 -8l-326 -323q-7 -7 -7 -17.5t7 -17.5t18 -7
t20 7l327 323q7 7 7 17.5t-7.5 18z" />
    <glyph glyph-name="zhaoxiangji" unicode="&#xe672;" 
d="M512 608q-94 0 -159 -65t-65 -159t65 -159t159 -65t159 65t65 159t-65 159t-159 65zM512 208q-72 0 -124 52t-52 124t52 124t124 52t124 -52t52 -124t-52 -124t-124 -52zM768 525q0 21 15 36t36 15t36 -15t15 -36t-15 -36t-36 -15t-36 15t-15 36zM864 672h-96l-22 67
q-5 12 -17.5 20.5t-24.5 8.5h-384q-14 0 -25.5 -8t-16.5 -21l-22 -67h-96q-41 0 -68.5 -27.5t-27.5 -68.5v-448q0 -40 28.5 -68t67.5 -28h704q41 0 68.5 27.5t27.5 68.5v448q0 41 -27.5 68.5t-68.5 27.5zM912 128q0 -19 -14.5 -33.5t-33.5 -14.5h-704q-19 0 -33.5 14.5
t-14.5 33.5v448q0 19 14.5 33.5t33.5 14.5h96h35l10 32l22 64h378l22 -64l10 -32h35h96q19 0 33.5 -14.5t14.5 -33.5v-448z" />
    <glyph glyph-name="zhengque" unicode="&#xe673;" 
d="M970 688q-8 7 -18 7t-18 -7l-508 -538q-15 -14 -34.5 -14.5t-36.5 11.5l-265 253q-8 7 -18 7t-17.5 -7t-7.5 -17.5t7 -17.5l266 -253q29 -28 70 -27t68 30l508 538q10 7 10.5 17.5t-6.5 17.5z" />
    <glyph glyph-name="xiaoxizhongxin" unicode="&#xe674;" 
d="M586 -10v0q35 45 41 45q156 29 251 138.5t95 258.5q1 112 -60.5 205.5t-168 147t-232.5 53.5t-233 -53.5t-169 -147t-62 -205.5q0 -149 96 -258.5t250 -138.5q5 0 41 -45v0q27 -35 42.5 -49.5t31.5 -14.5q15 0 30.5 14t46.5 50zM621 93q-14 -2 -26 -14.5t-41 -49.5v0
l-42 -45l-10 10q-6 6 -25 32q-32 40 -44.5 52.5t-26.5 14.5q-138 24 -222.5 119.5t-84.5 225.5q0 95 55.5 176t151.5 128.5t209 47.5t209 -47.5t151.5 -128.5t55.5 -176q-2 -132 -86.5 -226.5t-223.5 -118.5zM282 425.5q0 19.5 13 34t31.5 14.5t31.5 -14.5t13 -34t-13 -33.5
t-31.5 -14t-31.5 14t-13 33.5zM467 425.5q0 19.5 13 34t32 14.5t32 -14.5t13 -34t-13 -33.5t-32 -14t-32 14t-13 33.5zM653 425.5q0 19.5 13 34t31.5 14.5t31.5 -14.5t13 -34t-13 -33.5t-31.5 -14t-31.5 14t-13 33.5z" />
    <glyph glyph-name="lingcunwei" unicode="&#xe675;" 
d="M931 429q-9 0 -15.5 -6.5t-6.5 -16.5v-329q0 -17 -12.5 -29.5t-29.5 -12.5h-733q-16 0 -28.5 12.5t-12.5 29.5v563q0 17 12.5 29.5t28.5 12.5h295q9 0 15.5 6t6.5 16t-6.5 16t-15.5 6h-295q-36 0 -62.5 -25.5t-26.5 -63.5v-563q0 -37 26 -63.5t63 -26.5h733q37 0 63.5 26
t26.5 64v329q0 10 -7 18t-19 8zM970 630l-96 109q-14 14 -36 3q-13 -13 -3 -35l48 -57q-112 0 -224 -52q-212 -101 -259 -371q-2 -9 3.5 -17.5t15.5 -11.5q10 -2 18.5 4t10.5 16q41 244 230 336q62 31 148 41q51 7 73 3l-83 -73q-14 -14 -3 -35q14 -14 35 -4l115 100
q23 28 7 44z" />
    <glyph glyph-name="new" unicode="&#xe676;" 
d="M890 624h-759q-31 0 -52 -21t-21 -53v-361q0 -31 21 -52.5t52 -21.5h759q31 0 52 21.5t21 52.5v361q0 32 -21 53t-52 21zM320 250h-51l-99 195v-195h-32v233h44l103 -201h3v201h32v-233zM400 384h125v-32h-125v-6v0q0 -61 38 -61h90v-32h-90q-30 0 -48 22q-19 24 -19 71
v54q0 38 20 58t51 25v0h86v-32h-83q-42 -10 -42 -51q-3 -6 -3 -16zM816 250h-45l-45 185l-51 -185h-48l-67 233h35l58 -192h3l51 192h39l51 -201l61 201h32z" />
    <glyph glyph-name="ju" unicode="&#xe677;" 
d="M442 320l28 -29v32q-6 0 -15 -1.5t-13 -1.5zM317 470q83 7 118 7v19h-118v-26zM634 598q51 -19 112 -51q5 4 14 10.5t14.5 11t9.5 10.5q15 20 6 32q-7 14 -48 19h-3q-27 0 -52.5 -4t-43.5 -10t-31.5 -12.5t-21 -10.5t-8.5 -4l-19 41h-41v-147h51v-51q-35 0 -51 -3v-35
q81 13 105 16l-41 64l96 38q-20 14 -41 24.5t-32 13.5l-11 4zM787 845h-544q-77 0 -131 -54.5t-54 -131.5v-541q0 -79 54 -133.5t131 -54.5h541q77 0 131.5 54t54.5 131v544q2 77 -52 131.5t-131 54.5zM198 86q-2 8 -8.5 18t-11.5 17l-5 7q47 8 89.5 23t69.5 30t47 30
t28.5 23.5l8.5 8.5l51 -54q-41 -39 -134 -71t-135 -32zM723 435q23 -54 45 -80q-44 -10 -179 -22q14 -19 31.5 -37t41.5 -37q35 13 65 36t44 40l13 17l93 -54q-8 -8 -22 -19t-52.5 -32.5t-72.5 -28.5q62 -34 150 -55q-64 -61 -80 -80q-137 54 -218 147v-147h-112v211
q-43 -39 -137 -72t-135 -33q-2 7 -8.5 17.5t-11.5 17.5l-5 6q129 20 211 87q-83 -7 -144 -10v0l-13 55q42 0 208 12v42q-69 -6 -129 -16t-86 -18l-25 -8l-32 80q45 7 71 10v163h-48v58h390v-29q103 26 179 22q87 0 115 -48q20 -29 -3 -70q-4 -4 -12 -13.5t-17 -18.5t-19 -16
q24 -15 74 -58l-83 -67q-30 44 -64 74q-23 -15 -71 -42q16 3 48 16zM317 560h118v-29h-118v29zM317 624h118v-26h-118v26z" />
    <glyph glyph-name="suan" unicode="&#xe678;" 
d="M800 246v0q23 0 40.5 4.5t29 11t19.5 19t12 22.5t6 29t2 30.5v34.5v19v51q0 78 -87 96l52 48q-23 13 -58 32q59 0 131 -9q13 44 29 73q-70 5 -246 -3l12 16l-131 48q-1 -5 -4.5 -14.5t-14.5 -36t-24 -50t-34 -50.5t-44 -44q12 -4 25 -13l-160 -16l58 61q-16 13 -51 32
q54 0 131 -10q16 39 29 64q-123 13 -231 0q4 5 7 9t5.5 7t4 5.5t2 3.5l0.5 1l-137 41q-2 -5 -5 -13.5t-14 -32.5t-24 -45.5t-34.5 -46.5t-44.5 -41q16 -7 32 -17.5t24 -17.5l8 -6q52 20 112 80q32 -19 71 -52h-122v-323h99h42v-32h-237v-70h227q-15 -44 -60 -67.5
t-138 -25.5l35 -64q100 8 166 30.5t96 53t42 73.5h214v-163h141v163h176v70h-176v35h-3zM669 624q61 -43 73 -54h-16q-19 0 -59 -2t-59 -2q22 20 61 58zM320 547l3 -3h-3v3zM320 486q128 13 272 23q80 4 118 -4t48 -28l-438 -10v19zM659 214h-201v32h201v-32zM698 301h-320
v0h-20h-38v19l438 10q-5 -12 -20.5 -20.5t-39.5 -8.5zM320 381v25l445 10v-26z" />
    <glyph glyph-name="hua" unicode="&#xe679;" 
d="M467 602q35 0 61 26.5t26 56.5t-26 56.5t-60.5 26.5t-60.5 -26.5t-26 -56.5q0 -32 25.5 -57.5t60.5 -25.5zM637 653h125v-474h-125v474zM976 755h-144v-627q-4 -74 -99 -74q-26 -57 -29 -64q27 -4 67 -4.5t92.5 8t80.5 28.5q9 8 15 18t10 23t6.5 23t3 27.5t1 26.5t0 30
t-0.5 28q-3 32 -3 557zM432 102q51 47 67 119q6 21 14.5 80.5t14.5 107t6 49.5h-137q0 -97 -10 -192q-4 -44 -25 -87q-27 54 -23 119v192q112 16 240 16v64q-112 0 -243 -7l-3 176h-151l4 -185q-54 -4 -141 -16l41 -100q36 10 100 26l3 -150q0 -6 0.5 -15t4 -36t10 -52.5
t21 -58.5t34.5 -59q-50 -25 -137 -42l35 -70q87 16 169 51q10 -6 36 -19q39 -14 101.5 -22t89 -9t42.5 -1l51 64q1 1 -5.5 1.5t-19 1.5t-29 3t-36.5 5.5t-40.5 9t-42.5 15t-41 21.5z" />
    <glyph glyph-name="ju1" unicode="&#xe67a;" 
d="M70 64q23 -35 32 -58q52 0 170.5 42t169.5 90l-64 70l-11 -10t-36.5 -28.5t-59 -37.5t-87.5 -38t-114 -30zM950 282l-115 70l-6 -9t-19 -22.5t-31 -31t-41.5 -31.5t-52.5 -28q-59 44 -93 93q164 18 224 29q-13 14 -27.5 39.5t-22.5 44.5l-8 18q-16 -6 -60 -19
q22 11 86 51q39 -35 80 -96q54 42 102 84q-45 40 -92 73q37 29 60 64q30 47 4 90q-33 61 -144 61q-109 0 -221 -32v38h-490v-74h58v-204q-64 -7 -90 -10l42 -102q12 4 35 10t102 20.5t167 23.5v-51q-149 -19 -259 -19l16 -71q77 3 179 10q-114 -84 -266 -109q23 -35 32 -58
q52 0 170.5 42t168.5 90l-35 38q7 0 19.5 1.5t19.5 1.5v-310h140v189q97 -110 269 -186q10 10 35 35.5t44.5 46l19.5 20.5q-112 26 -188 71q44 11 91 38.5t72 48.5zM397 506q-23 -2 -73 -3.5t-74 -3.5v32h147v-25zM397 576h-147v35h147v-35zM397 662h-147v32h147v-32z
M506 397v45q11 0 31.5 1.5t32.5 1.5v67h-64v186h54l26 -52q3 3 8.5 6.5t24.5 13t40.5 16.5t54.5 13t67 6h3q52 -5 64 -26q11 -16 -6 -38q-15 -19 -48 -39q-35 19 -70 35.5t-53 24.5l-18 8l-51 -55q45 -16 102 -54q-19 -8 -59 -24t-59 -24l54 -83q-45 -16 -134 -29z" />
    <glyph glyph-name="huo" unicode="&#xe67b;" 
d="M336 -77q-22 46 -29.5 85.5t-1.5 72.5t18 57.5t32 53.5q23 34 39 71.5t21 58.5l4 20q2 -2 4.5 -5.5t9.5 -17t10 -28t5.5 -37.5t-3.5 -46q47 54 64.5 132.5t8.5 123.5q60 -41 102.5 -106t62 -137.5t13.5 -150.5t-40 -144q79 46 133.5 98.5t80 104t34.5 106t0 104t-26.5 97
t-41 86t-48 70.5t-43.5 52t-31 28q11 -25 14.5 -55.5t-4.5 -61.5t-30 -49q-15 57 -37 106.5t-45.5 83t-48.5 60.5t-47 42.5t-39.5 25.5t-28 14l-10.5 4q27 -173 -172 -420q-3 52 -10 83.5t-29 70.5q-3 -45 -25 -95.5t-48.5 -103.5t-35.5 -95q-22 -111 26.5 -194t191.5 -165
v0z" />
    <glyph glyph-name="301" unicode="&#xe67c;" 
d="M983 444v0q-7 6 -17 5.5t-16 -8.5l-14 -16q-7 71 -35 136q-32 75 -91 135q-63 65 -147 100q-80 34 -168 35t-169 -31q-85 -32 -150 -96q-87 -85 -119 -200.5t-3 -231.5t114 -203q63 -64 144.5 -99t171.5 -36v0q10 0 17 7q3 3 5 7.5t2 9.5v60q0 10 -7 17t-17 7v0
q-10 0 -17 -7t-7 -17v-35q-65 5 -125 30t-109 68l25 24q7 7 7 17t-6.5 17t-16.5 7h-1q-9 0 -16 -6l-26 -26q-95 106 -103 248l41 -1q10 0 17 7t7.5 17t-6.5 17t-17 7l-41 1q9 138 102 241l25 -26q7 -7 17 -7t17 7t7 17t-7 17l-25 26q102 89 238 98v-32q0 -10 7 -17t17 -7
t17 7t7 17v32q145 -8 251 -107l-23 -23q-7 -7 -7 -17t6.5 -17t16.5 -7t17 7l23 22q41 -49 65 -109q21 -50 27 -105l-13 14q-6 8 -16 8.5t-17.5 -6t-8 -16t5.5 -17.5l55 -64q7 -9 18 -8h1q11 0 18 8l55 64q6 7 6 17q-1 10 -9 17zM723 526q4 10 -1 19t-14.5 11.5t-18.5 -1.5
l-1 -1l-191 -165l-107 66v0q-9 5 -18.5 2t-14 -11.5t-2 -18t11.5 -14.5l120 -74v0q6 -3 12 -3h3q4 1 8 3l1 1l2 1l2 2l198 170q7 5 10 13zM719 117q9 6 15 14q13 18 13 43q0 20 -8 34q-8 15 -21 24t-29 13q-16 5 -32 5q-21 0 -38.5 -7.5t-29.5 -20.5t-18 -30q-5 -13 -6 -27
q-1 -8 4.5 -14t13.5 -6h5q8 0 13 5t6 12q0 9 3 16q3 11 9 18t15.5 11t22.5 4q11 0 20 -2q8 -2 14.5 -7t10 -12.5t3.5 -18.5q0 -10 -4 -17t-10 -12t-14 -7t-16 -2h-10q-8 0 -13.5 -5.5t-5.5 -13.5v-1q0 -8 5.5 -13.5t13.5 -5.5h10q12 0 22 -3t17 -8q7 -6 11 -14.5t4 -20.5
t-5 -20q-4 -10 -12 -16t-19 -10q-10 -3 -22 -3q-14 0 -25 5q-11 4 -18 11.5t-10 18.5q-3 8 -3 17q-1 7 -6 12.5t-13 5.5h-5q-8 0 -13.5 -5.5t-5.5 -13.5q0 -17 6 -32q7 -18 21 -31q13 -13 32 -19q19 -7 40 -7q20 0 38 6q18 5 31.5 16.5t22 28t8.5 38.5q0 29 -16 49
q-9 11 -22 18zM951 200q-7 13 -12 18.5t-19 16.5q-18 15 -52 15v0q-31 0 -52 -15q-20 -13 -31 -35q-10 -21 -14 -46t-4 -49t4 -48q4 -26 14 -46q11 -22 31 -36q21 -14 52 -14q32 0 52 14t31 36q10 20 14 46q4 25 4 48q0 24 -4 49t-14 46zM927 105q0 -16 -3 -36
q-2 -19 -8 -35q-6 -15 -18 -25q-11 -10 -30 -10t-30 10q-12 10 -18 25q-6 16 -8 35q-3 20 -3 36q0 17 3 37q2 19 8 35q6 15 18 25q11 9 30 9t30 -9q12 -10 18 -25q6 -16 8 -35q3 -20 3 -37z" />
    <glyph glyph-name="7" unicode="&#xe67d;" 
d="M963 412v1v3q-5 62 -26 121q-1 0 -1 2v0l-1 2l-2 4v1v0q-27 69 -74 126q-63 75 -151 118h-1q-113 56 -240 44q-125 -12 -226 -87q-53 -40 -92 -93q-37 -49 -60 -106q-41 -104 -28 -216q17 -153 122 -263q53 -56 122 -90q68 -35 145 -46h3q8 0 15 5q5 4 7 9h2l2 9
q26 123 34 152q20 69 59 153q40 86 91.5 160.5t81.5 104.5l3 2v84h-469v-100h347q-62 -74 -118 -172q-94 -165 -129 -332q-66 23 -120 66l-4 4q-62 51 -99 121t-45 150q-8 84 18 163q26 77 79 139q43 47 97 80q56 33 120 47h2q2 0 3 1q132 26 254 -31q88 -42 147 -121
q47 -64 66.5 -140.5t8.5 -155.5v-7q-17 -106 -86 -191q-6 -7 -5 -17t9 -16q4 -4 10 -5q8 -5 17 -3.5t15 9.5q52 66 77 146t20 165z" />
    <glyph glyph-name="mian" unicode="&#xe67e;" 
d="M968 397q-1 9 -1 18q-1 17 -4 34q-8 53 -27 102v0l-2 4v1l-2 4l-1 2q0 1 -1 3q-1 1 -1 2t-1 3q-1 1 -1.5 2t-0.5 2l-1.5 3t-1.5 2q0 2 -0.5 3t-1.5 2t-1 3q-1 1 -1 2q-1 1 -2 3l-1 2q-1 1 -1 2l-2 2q0 2 -1 3t-1 2q-1 2 -2 3q0 1 -1 2t-1.5 2.5t-1 2.5t-1.5 2t-2 3
q0 1 -1 2l-2 2q0 1 -1 2q-1 2 -2 3q0 1 -1 1l-2 4v1l-3 3v0.5v0.5q-2 2 -3 4v1q-2 2 -3 4v0q-18 24 -39 46v0q-1 2 -3 3l-1 1l-2.5 2.5t-1.5 2.5h-1q-3 4 -7 7q-64 61 -146 93q-78 31 -162 31q-37 0 -73 -5q-50 -8 -96 -26v0q-2 0 -5 -1q0 -1 -1.5 -1.5t-2.5 -0.5
q-8 -3 -16 -7q-83 -38 -144 -105q-75 -82 -103 -190q-23 -88 -10 -179q25 -166 152 -275q1 -1 3 -2v0q125 -106 288 -106q11 0 21 1q10 0 16.5 7.5t6 17.5t-8 16.5t-16.5 6.5q-142 -7 -255 77l-1 1q-12 8 -23 18q-2 1 -2 2v0l-8 6q-83 77 -113.5 183.5t-3.5 213.5
q23 88 82 158t142 107q3 1 4 2q1 0 3 1q4 2 7 3h1q63 25 131 28q79 4 152 -22q9 -3 18 -7h0.5t0.5 -1l5 -1q42 -19 80 -47q12 -8 23 -18v0v0q1 -1 5 -4l4 -4q2 -1 4 -3q27 -26 49 -55q0 -1 1 -2q2 -2 4 -5l2 -4t3 -3q2 -3 3 -6q1 -1 1 -2q3 -3 5 -6q53 -87 58 -190v-3
q6 -136 -72 -247h-192q-22 -1 -33 10.5t-9 30.5v88q0 21 -26 21t-26 -21v-112q2 -62 88 -65l219 1v0q8 0 12 6q45 61 69 134.5t23 148.5q1 1 1 2zM253 155q-31 -11 -26 -37q13 -26 45 -18q195 49 271 206h208q47 -3 44 57v117q6 52 -49 47h-141q34 52 44 78q29 63 -46 63
h-139q6 8 8 10q13 31 -10 47q-24 11 -39 -18q-71 -143 -175 -203q-26 -16 -15 -39q15 -21 44 -6q8 6 15 11q3 0 6 2v-117q-3 -52 47 -49h135q-60 -110 -227 -151zM720 478q26 5 23 -24v-75q0 -26 -23 -24v0h-164q10 47 13 123h151zM433 613h143q11 0 13.5 -2.5t-2.5 -10.5
q-13 -29 -47 -73h-180q37 34 73 86zM373 355q-26 -2 -26 24v78q3 21 26 21h141q-3 -21 0 -13q-8 -84 -13 -110h-128z" />
    <glyph glyph-name="hongbao" unicode="&#xe6da;" 
d="M702 472q2 -19 2 -24q0 -80 -56 -136t-136 -56t-136 56t-56 136q0 5 2 24q-87 56 -130 150v-537q0 -35 25 -60t60 -25h470q35 0 60 25t25 60v537q-43 -94 -130 -150zM343 537q24 47 69.5 75t99.5 28t99.5 -28t69.5 -75q51 37 82 92.5t35 119.5q-24 19 -51 19h-470
q-27 0 -51 -19q4 -64 35 -119.5t82 -92.5zM612 437q7 0 12 5t5 12.5t-5 12.5t-12 5h-69l69 69q12 12 0 24t-25 0l-75 -75l-75 78q-12 12 -25 0q-5 -6 -5 -13t5 -12l70 -71h-70q-7 0 -12 -5t-5 -12.5t5 -12.5t12 -5h83v-31h-83q-7 0 -12 -5t-5 -13t5 -12.5t12 -4.5h83v-49
q0 -8 5 -13t12.5 -5t12.5 5t5 13v49h82q7 0 12 4.5t5 12.5t-5 13t-12 5h-82v31h82z" />
    <glyph glyph-name="jushoucanggift" unicode="&#xe684;" 
d="M893 672q-14 17 -27 31q-52 54 -109 72t-111.5 3t-109.5 -59q-14 -11 -27 -23q-13 12 -27 23q-55 44 -109 59t-111.5 -3t-109.5 -72q-13 -14 -25 -30q-63 -91 -65 -186t48.5 -182t149.5 -173q60 -53 133 -100q22 -15 43 -27q11 -6 17 -9q7 -5 15 -7q5 -3 12 -5
q19 -5 44 -1.5t42 13.5q4 2 16 9q21 12 44 27q72 47 133 100q98 86 148.5 173t49 181.5t-63.5 185.5z" />
    <glyph glyph-name="liwu" unicode="&#xe685;" 
d="M925 73v307q35 20 35 61v78q0 29 -20.5 49.5t-50.5 20.5h-92l6 4q68 42 80 82q13 46 -39 77q-56 32 -142 12q-55 -13 -121 -49q-32 -17 -63 -38q-7 -4 -13 -9q-11 10 -21 19q-96 79 -178 89q-74 9 -129 -37l-3 -3l-4 -4q-53 -68 27 -143h-60q-29 0 -49.5 -20.5
t-20.5 -49.5v-78q0 -41 35 -61v-307q0 -38 27.5 -65.5t66.5 -27.5h635q39 0 66.5 27.5t27.5 65.5zM604 674q60 32 109 44q67 16 107 -7q21 -12 17 -23q-6 -22 -59 -55q-21 -13 -47 -26q-13 -6 -21 -9q-6 -3 -10 -9h-122q-1 5 -4 9q-2 3 -7 8q-8 10 -18 20l-9 9q2 2 4 3
q30 20 60 36zM273 592q-5 2 -12 7q-15 10 -28 21q-53 48 -26 83h1v1q40 31 92 25q69 -8 154 -79q31 -25 61 -56q2 -2 4 -5h-243q-1 2 -3 3zM114 519q0 10 6.5 17t16.5 7h752q10 0 17 -7t7 -17v-78q0 -10 -6 -16h-6h-776h-5q-6 7 -6 16v78zM196 27q-20 0 -33.5 13.5
t-13.5 32.5v297h729v-297q0 -19 -14 -32.5t-33 -13.5h-635z" />
    <glyph glyph-name="yuyin" unicode="&#xe687;" 
d="M827.5 444.5q-9.5 0.5 -17 -6t-7.5 -15.5q0 -5 -1 -13q-2 -17 -6 -35q-11 -58 -36 -107q-76 -150 -248 -150t-248 150q-25 49 -36 107q-4 18 -6 35q-1 8 -1 13q0 9 -7.5 15.5t-17 6t-16 -7.5t-6.5 -17q1 -22 8 -54q13 -65 40 -119q82 -163 265 -175v-85h-196
q-10 0 -16.5 -7t-6.5 -17t6.5 -16.5t16.5 -6.5h442q10 0 17 6.5t7 16.5t-7 17t-17 7h-199v85q185 10 268 175q27 54 40 119q7 32 8 54q0 10 -6.5 17t-16 7.5zM510 196q80 0 137 56.5t57 136.5v246q0 80 -57 136.5t-137 56.5t-136.5 -56.5t-56.5 -136.5v-246
q0 -80 56.5 -136.5t136.5 -56.5zM364 635q0 61 43 103.5t103.5 42.5t103.5 -42.5t43 -103.5v-246q0 -60 -43 -103t-103.5 -43t-103.5 42.5t-43 103.5v246z" />
    <glyph glyph-name="add" unicode="&#xe775;" horiz-adv-x="1025" 
d="M483 413v8v327q0 23 19 29q13 5 24.5 -2.5t12.5 -21.5v-8v-325v-7h8q242 0 326 -1q8 0 12 -1q10 -2 15.5 -10.5t4.5 -18.5q0 -10 -7 -17t-17 -9h-9h-324h-9v-8v-328q0 -25 -22 -30q-12 -3 -22.5 5t-11.5 21v7v325v8h-8h-326q-18 0 -27 11q-9 13 -3.5 27.5t21.5 17.5
q4 1 10 1h325h8z" />
    <glyph glyph-name="attachment" unicode="&#xe777;" horiz-adv-x="1134" 
d="M376 14q-91 0 -155 52.5t-77 134.5q-17 109 59 186q36 36 277 276q9 9 20.5 9t19.5 -8t8 -19.5t-9 -20.5q-177 -176 -272 -270q-31 -31 -44 -71q-22 -72 19 -137t114 -75q86 -13 147 48q68 68 198 197t191 190q28 28 34 65q6 42 -19 78t-66 45q-65 14 -111 -36l-15 -15
q-30 -30 -85.5 -85t-101 -100t-85.5 -85q-15 -16 -17 -36.5t10 -37.5q15 -19 39.5 -22t42.5 13l6 6q133 133 172 171q13 13 29 8q14 -4 18 -17.5t-5 -25.5q-1 -1 -3 -4q-161 -159 -176 -174q-30 -29 -69.5 -32t-72 19.5t-43.5 62.5q-15 61 30 107l108 108q152 150 175 173
q25 25 41 35q37 23 79 24.5t77.5 -15t62 -49.5t32.5 -75q13 -83 -45 -142q-151 -151 -395 -392q-63 -63 -143 -64v0v0z" />
    <glyph glyph-name="close1" unicode="&#xe779;" 
d="M477 385q-5 4 -5 5q-14 13 -117.5 116.5l-158.5 158.5q-10 10 -9 23q2 14 15.5 19.5t25.5 -3.5l5 -5q170 -170 273 -274q1 0 4 -5h1h1l4 5q45 45 136.5 137t138.5 138q11 12 25 9t18.5 -17t-5.5 -24q-1 -1 -4 -5q-194 -193 -274 -273l-6 -5l6 -5q39 -39 132 -131.5
t143 -142.5q9 -10 9 -20q0 -16 -14 -23t-27 4l-5 5l-273 273l-4 5l-5 -4q-207 -208 -276 -276q-12 -12 -26 -8q-13 3 -17 16.5t5 23.5q1 1 4 5q168 167 274 274q1 0 6 4v0v0z" />
    <glyph glyph-name="costincluded" unicode="&#xe77b;" 
d="M535 831q99 -2 199 -58q18 -10 14 -29q-3 -20 -23 -23q-9 -2 -20 4q-54 31 -116 43q-131 27 -252 -34t-178 -182q-45 -97 -35 -205q12 -129 100 -225.5t216 -121.5q102 -19 198.5 13.5t165 108t91.5 177.5q32 142 -39 273q-9 16 -7 26q4 19 24 22q18 3 28 -14
q25 -43 39 -91q21 -75 19.5 -148t-29 -141.5t-71.5 -123.5t-107.5 -95.5t-138.5 -57.5q-117 -27 -230.5 8t-195 121t-109.5 203t5.5 230t118.5 195t201 112q55 14 132 13v0zM485 329v56h-7h-103q-14 0 -22.5 9t-6.5 22q1 11 9 18t20 7h91h7l-4 5q-7 6 -49 48.5t-65 64.5
q-16 17 -5 36q6 10 18.5 12.5t22.5 -5.5q2 -1 6 -5q74 -74 111 -112q1 0 4 -5h1h1l4 5l50.5 50.5l62.5 62.5q13 13 28.5 9t19.5 -19.5t-7 -27.5q-3 -2 -35 -34q-57 -58 -79 -80l-5 -3q0 -1 0.5 -1.5l0.5 -0.5h6h91q24 0 29 -23q2 -11 -4.5 -21t-17.5 -12h-9h-101h-7v-56h7
h105q22 0 27 -22q2 -10 -2 -18.5t-13 -12.5q-7 -3 -14 -3h-103h-7v-8v-104q0 -18 -17 -25q-16 -7 -29 4q-10 8 -10 23v103v7h-6h-106q-19 0 -26 18q-6 18 8 31q8 7 20 7h103h7v0z" />
    <glyph glyph-name="costnotincluded" unicode="&#xe77c;" 
d="M64 385q0 91 35.5 173.5t95.5 142.5t143 95.5t173.5 35.5t173.5 -36t143 -96t95.5 -142.5t35.5 -173.5q0 -89 -35 -171.5t-94.5 -143t-142.5 -96.5t-176 -36q-91 0 -173.5 35.5t-142.5 95.5t-95.5 143t-35.5 174v0zM256 89q50 -45 116.5 -70t137.5 -26t144.5 27.5
t132 86.5t88 131t28.5 144.5t-25.5 139t-70.5 118.5q-102 -101 -200 -198l0.5 -0.5l1.5 -1.5h4h38q21 0 27 -20q4 -14 -4.5 -24.5t-23.5 -11.5h-92q-7 1 -13 -5q-7 -6 -6 -15v-20v-15h7h104q17 0 25 -14t0.5 -28t-24.5 -14h-104h-8v-8v-102q0 -14 -8 -22q-13 -12 -30 -6
q-18 7 -18 27v104v7h-38q-6 0 -10 -5q-37 -36 -175 -175q-1 0 -3 -2q-1 -1 -1 -2v0v0zM471 383l-1 1h-6h-91q-21 0 -27 18q-6 14 2.5 26t24.5 12h92h7l-5 6q-19 19 -56 55.5t-55 55.5l-5 5q-10 12 -5.5 26.5t18.5 18.5q16 4 30 -9l57.5 -57.5t54.5 -55.5l5 -7l5 7l112 112
q13 13 26 11t22 -17h1l90 89q-72 64 -166.5 86.5t-195 -5.5t-175.5 -106q-56 -58 -84 -130.5t-26.5 -143t26.5 -136.5t69 -115l145 145v0v0l-1 1q-20 11 -14.5 31.5t28.5 21.5q26 0 30 -1q12 -1 23 10q4 5 45 45v0z" />
    <glyph glyph-name="discoverline" unicode="&#xe77d;" 
d="M511 893q104 0 198 -40.5t162 -108t108 -160.5t41 -194q1 -105 -39 -200.5t-108.5 -164t-163 -109t-198.5 -41.5q-103 0 -197 40.5t-162.5 108.5t-109 162t-40.5 197q0 104 40 198.5t108.5 162.5t162.5 108.5t198 40.5v0zM511 -61q91 0 173 35.5t141.5 95t95 141.5
t35.5 173t-35 173t-94.5 142t-142 95t-173 35t-173 -35t-142 -94.5t-94.5 -142t-36 -173.5q0 -119 58.5 -221t161.5 -162.5t225 -61.5v0zM257 98q-18 0 -27 14.5t-2 31.5q4 9 49 107q88 195 107 237q8 16 23 23q53 24 342 155q16 8 30 1.5t18 -22.5q2 -10 -4 -23
q-28 -61 -141 -310q-15 -32 -15 -34q-6 -13 -19 -19q-49 -22 -166 -75t-180 -82q-1 0 -15 -4v0zM701 574l-5 -2q-180 -82 -252 -115q-4 -1 -7 -7q-25 -56 -95 -209q0 -1 -21 -46l7 2q176 80 249 114q5 2 8 7q12 27 64 140q4 9 52 116v0zM543 384q0 -13 -9.5 -22.5t-23 -9
t-22.5 9.5t-9 22.5t9.5 22.5t23 9t22.5 -9.5t9 -22.5v0z" />
    <glyph glyph-name="earth" unicode="&#xe77e;" 
d="M258 535q16 83 19 93q4 19 14 37q14 25 38 34t51 -1q4 -2 51 -27l10 -6q4 14 4 15q12 42 52 54q5 2 75 21q1 1 7 3q-16 17 -17 17q-2 2 -56 49q-13 11 -17 15q-15 14 -7 34q8 21 30 20q64 0 114 -13q284 -74 370 -345q23 -69 24 -141t-16 -137.5t-52 -126t-83.5 -108.5
t-111.5 -83t-135 -51q-129 -29 -254.5 8t-217.5 129.5t-128 220.5q-41 144 3 287.5t158 239.5q17 15 36 5q17 -9 17 -32q0 -22 -5.5 -62t-6.5 -58q0 -12 -1 -30q0 -11 8 -26q11 -20 27 -35v0zM320 513l3 -2l90 -30q2 -1 7 0q9 0 42.5 1.5t51.5 2.5q32 1 52 -25q8 -9 31 -35
q11 -13 27 -15q14 -2 62 -9q7 -1 30 -4.5t36 -5.5q15 -2 18 -18q8 -51 -8 -94q-24 -61 -77 -129q-54 -68 -140 -151q-11 -12 -28 -24q-6 -5 -13.5 -4.5t-10.5 6.5q-19 30 -19 48q1 40 4 68q5 45 -11 78q-12 25 -39 85q-11 23 -13 41q-5 33 -16 88q-6 35 -41 46
q-44 15 -102 35q-24 9 -31 15q-52 39 -63 95q-2 8 -1 56q0 2 3 30q-92 -113 -97.5 -260t80.5 -273q86 -123 231 -168.5t287 6.5q143 53 225 184t63 290q-19 145 -116.5 247t-226.5 129q1 -1 3 -2.5l2 -1.5q41 -45 45 -51q13 -17 10.5 -27t-22.5 -20q-18 -9 -39 -15
q-43 -13 -82 -22q-21 -5 -24 -27q-5 -33 -9 -54q-4 -17 -11 -20.5t-23 4.5q-9 4 -44 25q-4 2 -21 12.5t-26 15.5q-13 7 -18 4.5t-10 -16.5q-6 -20 -10 -40q-1 -7 -11 -69v0zM708 334l-80 10q-54 7 -87 47q-14 18 -22 26q-4 4 -9 4q-11 0 -51 -1l-3 -1v-2q11 -30 19 -87
q5 -36 9 -46q8 -14 20 -41t17 -36q28 -60 21 -112q-1 -1 -1 -10h2q69 77 74 82q40 45 80 122q9 17 11 45v0z" />
    <glyph glyph-name="ensure" unicode="&#xe77f;" 
d="M32 641q3 69 4 74q2 23 18.5 39.5t39.5 17.5q4 0 35 1.5t47 3.5q161 18 300 106q29 18 58 8q8 -2 16 -8q123 -78 266 -101q52 -9 110 -10q29 0 46.5 -17.5t19.5 -46.5q6 -79 -1 -154q-27 -281 -192 -478q-106 -127 -257 -195q-28 -13 -57 1q-137 62 -238 173
q-127 139 -180 333q-34 120 -35 253v0zM99 708q-2 -35 -2 -36q-2 -92 12 -178q24 -146 92 -266q110 -195 307 -286q6 -3 11 -1q181 84 288 255q135 214 122 495q0 1 -1 17h-6q-63 1 -120 11q-153 26 -283 109q-5 3 -11 0q-31 -20 -48 -29q-145 -77 -307 -88q-3 -1 -54 -3v0z
M450 304l5 7l225 225q14 14 30 12q19 -3 26 -21q6 -17 -6 -32l-6 -6q-124 -125 -248 -248q-26 -27 -53 0q-102 101 -123 123q-10 10 -10.5 22.5t7.5 22.5q10 10 23.5 10.5t23.5 -9.5q14 -13 59 -58q1 -2 47 -48v0z" />
    <glyph glyph-name="guide2" unicode="&#xe780;" horiz-adv-x="1297" 
d="M902 176q-54 -14 -55 -14q-460 -112 -543 -133q-43 -10 -72 -3q-36 9 -60.5 38t-27.5 66v23v479q0 74 66 108q41 21 88 5q21 -7 21 -29v-119v-7h5q503 125 572 142q40 9 55 11q42 5 78.5 -22t44.5 -69q3 -13 3 -27v-493q0 -51 -37 -85.5t-87 -30.5q-13 0 -32 7
q-16 5 -19 23v9v113v8v0zM1019 234v300q0 86 -1 94q0 23 -16 40t-40 17q-10 0 -34 -6q-152 -37 -556 -137q-3 -1 -53 -13v-8v-297q0 -17 -11.5 -25.5t-28.5 -4.5q-14 4 -26 3q-24 -3 -39 -23t-11 -44t23.5 -38t43.5 -10q13 2 27 5q277 68 565 139q47 12 56 15q40 13 74 3
q1 -1 27 -10v0zM260 693q-24 0 -41 -17t-17 -40v-391l1 -4q26 14 57 15v437v0zM961 73q34 2 50 30q18 32 -4 63q-16 23 -46 24v-117v0z" />
    <glyph glyph-name="guidepost" unicode="&#xe781;" 
d="M417 -61v604h-8h-208h-37q-19 -1 -33 -15q-7 -8 -15.5 -16.5l-18.5 -18.5l-15 -15q-14 -14 -14 -30.5t14 -29.5q48 -49 49 -50q14 -15 36 -16h13.5h13.5h130q16 0 24.5 -13.5t3.5 -28.5q-8 -21 -31 -21h-117q-42 0 -53 1q-37 4 -63 32l-29 29t-23 22q-31 32 -31.5 74.5
t31.5 74.5l21.5 21.5l27.5 27.5q33 36 87 36q17 1 208 0h37v8v211q0 30 18.5 48.5t47.5 18.5h58t48.5 -18.5t18.5 -48.5v-60h7h207q1 0 23 0.5t22 -0.5q42 -4 71 -33l28 -28l24 -24q32 -32 32 -74.5t-33 -74.5l-48 -49q-33 -35 -84 -36q-22 0 -62 0.5t-47 0.5h-135h-4v-509
h7h87q20 0 29 -18q8 -18 -4 -33q-9 -12 -26 -12h-119h-258q-15 0 -24 7q-16 14 -9 35t30 21h87h8v0zM544 -61v9v121v128.5v151.5v129q0 15 9.5 24t24.5 9h232q6 0 20 -0.5t20 -0.5q30 0 48 20l46 46q14 14 14 30.5t-14 30.5l-20.5 20.5l-29.5 29.5q-14 15 -34 16
q-8 0 -23 -0.5t-20 -0.5h-200h-9v-8v-55q0 -16 -12.5 -25.5t-27.5 -5.5q-24 6 -24 33v179v9h-63v-890h63v0z" />
    <glyph glyph-name="help" unicode="&#xe782;" horiz-adv-x="1029" 
d="M2 383q0 104 40.5 198.5t109 163t163 109t198.5 40.5t198.5 -40.5t163 -109t109 -163t40.5 -198.5t-40.5 -198.5t-109 -163t-163 -109t-198.5 -40.5t-198.5 40.5t-163 109t-109 163t-40.5 198.5v0zM66 383q0 -91 35.5 -173.5t95.5 -142.5t142.5 -95.5t173.5 -35.5
t173.5 35.5t142.5 95t95.5 142.5t35.5 174t-35 173.5t-95 142.5t-142.5 95.5t-173.5 35.5t-174 -35t-143 -95t-95.5 -143t-35.5 -174v0zM706 479q-2 -60 -35 -108t-89 -70q-11 -4 -19 -8q-17 -9 -18 -29q0 -13 -1 -16q-3 -12 -12.5 -19t-20.5 -5q-13 1 -21 9.5t-9 21.5
q-2 68 58 97q10 5 17 7q42 15 65.5 52.5t18.5 80.5q-4 44 -35 76t-75 38q-56 7 -99.5 -30t-45.5 -94q0 -8 -1 -12q-3 -11 -13 -17.5t-21 -5.5q-13 2 -21 11t-7 22q0 73 46 124q80 89 192 60q112 -28 140 -145q1 -2 6 -40v0zM481 112v17q1 13 10 22t22 9t22.5 -9t9.5 -22
q1 -15 0 -34q0 -13 -9.5 -22t-22.5 -9t-22 9t-10 22v17v0z" />
    <glyph glyph-name="homeline" unicode="&#xe783;" horiz-adv-x="1095" 
d="M106 349h-44q-33 -3 -48 21q-19 31 -5 61q7 15 19 25q61 55 270 239q29 26 62.5 55.5t74 66t63.5 55.5q23 21 49.5 21t49.5 -21q220 -194 470 -415q22 -20 24 -47t-17 -48q-12 -13 -29 -13h-56v-9v-361q0 -61 -51 -93q-23 -13 -56 -13h-323.5h-346.5q-13 0 -21 2
q-39 7 -62 35t-23 68v361v10v0zM87 418l0.5 -0.5l0.5 -0.5h7h46q24 -1 31 -24q2 -6 2 -16v-398q0 -38 38 -38h671q8 0 13 1q25 7 25 35v197.5v205.5q0 17 10 27t27 10h22h22h7q-306 271 -461 408q-245 -216 -461 -407v0z" />
    <glyph glyph-name="homeshape" unicode="&#xe784;" horiz-adv-x="1095" 
d="M988 349v-11v-359q0 -55 -42 -87q-25 -18 -58 -19h-8h-668q-69 0 -99 61q-8 18 -8 46v359v10h-47q-27 -1 -40 14q-18 23 -15 50q3 25 23 43q218 192 470 415q24 22 50.5 21.5t50.5 -21.5q188 -166 469 -415q22 -20 24 -47.5t-18 -48.5q-12 -11 -27 -11h-57v0z" />
    <glyph glyph-name="like2line" unicode="&#xe785;" horiz-adv-x="1165" 
d="M598 601h11h446q38 0 67 -22.5t39 -58.5q6 -21 -2 -61q-46 -212 -102 -474q-1 -4 -2.5 -15t-3.5 -17q-10 -36 -39 -57t-68 -21h-453h-82q-20 -1 -31.5 10t-11.5 26t11.5 26t30.5 11q92 -1 533 -1q20 0 29.5 9t13 29t19.5 94q17 79 48 224t40 186q3 14 -7.5 26t-25.5 13
h-9h-497q-34 0 -39 28q-2 11 1 23q14 43 66 197q5 15 -2 26.5t-22 15.5q-5 1 -11 1h-32.5h-33.5q-12 0 -17 -8q-1 -1 -2.5 -3.5t-2.5 -3.5q-132 -203 -133 -205q-4 -6 -16 -23t-18 -27q-13 -21 -39 -21h-135q-19 0 -30 -10.5t-11 -29.5v-501q1 -19 11.5 -29.5t29.5 -10.5h66
q18 0 28.5 11t10.5 28v429q0 10 2 18q5 12 16 18t24 4t21.5 -11.5t8.5 -22.5v-67v-368q0 -38 -21.5 -67.5t-56.5 -39.5q-14 -4 -30 -4q-25 -1 -73 0q-46 0 -77 31.5t-32 76.5v115v390q0 40 21.5 69.5t58.5 39.5q14 4 32 4h116q7 0 11 6q17 26 61 92l68 102q5 8 15 24.5
t15 25.5q28 41 78 41q12 -1 35.5 -0.5t35.5 -0.5q44 0 75 -31.5t31 -74.5q0 -8 -2 -17q-11 -30 -53 -157l-3 -10v0z" />
    <glyph glyph-name="clock1" unicode="&#xe789;" 
d="M62 385q0 157 98 280t251 158q168 37 321 -48q19 -10 15 -31q-3 -19 -24 -22q-9 -1 -20 5q-53 30 -116 43q-133 28 -257 -36.5t-178 -189.5q-40 -91 -33 -190q9 -120 86 -215.5t193 -130.5q78 -24 156.5 -13.5t145 45.5t116.5 97t73 140q44 155 -36 300q-10 18 0 33
q9 13 24.5 12t23.5 -15q23 -41 38 -87q28 -88 19 -180q-14 -137 -101.5 -242.5t-219.5 -143.5q-75 -20 -148 -18t-141 30.5t-123 72.5t-95 108t-57 139q-11 48 -11 99v0v0zM512 384v236q0 13 -8.5 21.5t-20.5 8.5t-20.5 -8.5t-8.5 -21.5v-294h309q12 0 20.5 8.5t8.5 20.5
t-8.5 20.5t-20.5 8.5h-251z" />
    <glyph glyph-name="internationalflight" unicode="&#xe78f;" horiz-adv-x="1042" 
d="M387 573q-62 68 -73 80q-114 124 -125 137q-14 15 -10.5 31.5t22.5 23.5q10 5 50.5 21.5t62.5 26.5q20 8 37 -4q43 -30 140.5 -99t150.5 -105q6 -5 12 -2q150 62 205 85q54 22 105.5 -2.5t68.5 -79.5q14 -48 -7.5 -93t-68.5 -64q-32 -13 -340 -141q-279 -116 -342 -142
q-23 -10 -41 8q-43 40 -121.5 115t-96.5 93q-14 13 -11.5 29.5t19.5 25.5q16 8 51.5 26t54.5 28t36 -1q40 -24 84 -49q4 -3 8 -1q33 13 126 52l3 1v0zM92 479q6 -5 6 -6q128 -122 163 -156q5 -5 11 -2q128 53 364.5 151t294.5 122q9 4 16 9q20 14 25 38t-7 45q-12 22 -35 30
t-47 -2q-149 -61 -220 -91q-23 -10 -44 4q-55 40 -159 112.5t-129 89.5q-5 5 -12 2q-4 -2 -47 -20l-7 -3l7 -7q146 -160 192 -210q14 -15 10.5 -31.5t-23.5 -24.5q-11 -4 -79.5 -32.5t-104.5 -43.5q-18 -8 -35 3q-29 17 -81 47q-5 3 -7 2l-52 -26v0zM522 228q3 37 3 39
q1 14 10.5 22.5t22.5 8.5q14 -1 23 -10.5t8 -23.5q0 -2 -2 -35h128q-3 41 -3 44q-1 7 -8 59q-2 13 5.5 24t20.5 13t24 -5.5t13 -20.5q4 -21 11 -89q1 -1 2 -25h128q-8 36 -8 38q-16 55 -53 98q-15 17 -12 33q5 19 24 24t32 -10q43 -47 64 -106q19 -57 19.5 -112.5
t-19.5 -107.5t-53 -94t-82 -72t-106 -41q-87 -18 -169.5 11t-139 95t-72.5 153q-4 24 -5 57q-1 18 13 27.5t31 3.5q3 -1 7 -1q1 0 8 1.5t11 1.5h116h8v0zM588 163l-1 -3q4 -81 21 -141q12 -45 30 -70q9 -12 13 -11.5t13 10.5q12 16 23 47q19 54 26 130q0 2 2 38h-127v0z
M395 163q8 -67 49 -121q45 -61 118 -89q-34 84 -40 210h-127v0zM780 163q-6 -125 -39 -209q71 25 116 85.5t50 123.5h-127v0z" />
    <glyph glyph-name="myshape" unicode="&#xe793;" 
d="M513 -127h-490q-10 0 -12 10q-14 62 1 110q26 89 112 130q13 6 27.5 11t34 10t28.5 8q67 20 147 42q27 7 37 20q17 20 13.5 48.5t-25.5 43.5q-96 68 -129 183q-27 94 -11 177q32 169 198 217q74 21 148 -1.5t125.5 -80t63.5 -133.5q26 -168 -68 -292q-9 -12 -48 -50
q-4 -4 -27 -21.5t-23 -50t24 -49.5q7 -6 15 -8q20 -6 56.5 -16t51.5 -14q104 -30 123 -36q48 -16 83 -54q70 -77 51 -180l-1.5 -7t-2.5 -11q0 -6 -7 -6h-5h-490v0z" />
    <glyph glyph-name="passport" unicode="&#xe794;" 
d="M426 -52q-126 183 -137 405h-7h-237h-9q-13 -1 -22.5 7.5t-10.5 22.5t1 35q10 142 88 254q123 177 331 213q118 21 231.5 -12t200.5 -113t130 -191q8 -21 -5.5 -35.5t-32.5 -8.5q-15 4 -21 20q-22 58 -58 105q-103 135 -268 171h-3q126 -183 136 -404h8h238q10 0 13 -1
q13 -2 20.5 -11t7.5 -22q0 -161 -94.5 -293.5t-247.5 -185.5q-76 -27 -155.5 -28.5t-152.5 21t-137.5 63.5t-115 103t-79.5 137q-7 16 0.5 30t24.5 16q24 3 34 -22q19 -50 47 -90q102 -146 275 -185l7 -1v0zM511 -60q87 107 128 236q27 87 31 177h-317q12 -232 158 -413v0z
M512 829q-80 -98 -121 -214q-33 -96 -38 -198h317q-13 231 -158 412v0zM598 -51q159 32 259 156q87 107 98 248h-222q-10 -220 -135 -404v0zM426 821q-101 -19 -182 -81t-126.5 -147t-49.5 -176h221q11 221 137 404v0z" />
    <glyph glyph-name="process" unicode="&#xe795;" 
d="M1 384v70q0 34 21 55t55 21h140q32 0 53 -20t22 -51q2 -73 0 -149q0 -31 -21.5 -51.5t-53.5 -20.5h-141q-33 0 -54 21t-21 53v72v0zM74 457v-145h145v145h-145v0zM1 19v71q0 33 21 54t55 21h139q33 0 54.5 -20.5t21.5 -53.5q1 -70 0 -143q0 -33 -21 -53.5t-54 -20.5
q-77 -1 -141 0q-33 0 -54 20.5t-21 52.5v72v0zM219 -53v145h-145v-145h145v0zM712 348h-270q-28 0 -37 23q-7 16 1.5 31t25.5 18q5 1 11 1h538q35 0 41 -31q2 -14 -6.5 -26.5t-22.5 -14.5q-5 -1 -14 -1h-267v0zM713 56h269q31 0 39 -26q4 -16 -4.5 -30t-25.5 -16
q-4 -1 -10 -1h-538q-33 0 -40 28q-4 16 5 29t25 15q4 1 12 1h268v0zM712 713h-271q-29 0 -37 25q-6 17 4 31.5t28 16.5h7h538q35 0 41 -31q2 -15 -7 -27.5t-24 -14.5h-11h-268v0zM111 729l17 17l26 26l110 110q12 13 27.5 13.5t26.5 -11t10.5 -26.5t-12.5 -27l-179 -179
q-12 -12 -27 -12t-27 12q-36 36 -71 70q-11 12 -11.5 27t10.5 26t26 10.5t27 -11.5l25.5 -25.5t19.5 -18.5l2 -1v0z" />
    <glyph glyph-name="search" unicode="&#xe797;" 
d="M440 20q-88 0 -169 34.5t-139 93t-92.5 139t-34.5 169.5q0 118 58.5 218.5t159.5 159t220 57.5q88 0 168.5 -34.5t138.5 -93t92.5 -139.5t33.5 -169q0 -89 -34.5 -169.5t-93 -139t-139 -92.5t-169.5 -34v0zM804 455q0 98 -48.5 182t-132 132.5t-181.5 49.5
q-99 0 -182.5 -48.5t-132.5 -132t-49 -182.5q-1 -98 47.5 -181.5t131.5 -132.5t181 -50q100 0 184 48.5t133 132t49 182.5v0zM840 92q15 0 26 -10q108 -108 145 -146q11 -11 11 -25.5t-10.5 -25t-25.5 -11t-26 10.5l-146 146q-17 17 -7 40q9 21 33 21v0z" />
    <glyph glyph-name="map" unicode="&#xe79b;" 
d="M72 125l7 6l205 205q17 17 37 10q17 -5 22 -22.5t-7 -31.5l-6 -6q-185 -185 -253 -252q-5 -6 -5 -12v-45q0 -17 10 -26.5t27 -9.5h226h190h9q-7 6 -7 7l-238 238q-17 16 -11 36q5 18 22.5 23t31.5 -7q2 -1 7 -6q97 -98 153 -153l4 -5q91 92 346 343l-5 4q-21 13 -16 37
q2 11 10.5 18.5t18.5 7.5q62 1 84 -1q39 -4 64.5 -33t25.5 -68v-285v-120q0 -45 -30 -74.5t-74 -29.5h-812q-44 0 -73.5 29.5t-29.5 74.5q-1 202 0 403q0 45 29.5 74.5t73.5 29.5h67q12 0 21.5 -8t11.5 -20q2 -14 -5 -24.5t-20 -13.5q-4 -1 -12 -1h-30.5t-30.5 -1
q-18 0 -28 -9.5t-10 -27.5v-122.5v-123.5v-3.5v-4.5v0zM933 414q-364 -364 -387 -389l50 -50q20 -20 20 -34h8h293q39 0 39 38v398v8q-2 23 -23 29v0zM789 620q-2 -64 -30 -123q-40 -83 -101 -146q-54 -56 -96 -96q-21 -21 -47.5 -21t-48.5 21q-89 83 -135 142
q-62 80 -81 154q-20 75 2.5 148.5t79.5 125t134 64.5q112 20 205 -45t113 -177q0 -2 5 -47v0zM513 301l6 6q79 80 88 89q53 55 89 127q30 60 22 123q-10 87 -82.5 140t-158.5 36q-49 -9 -88 -39t-58.5 -71t-22 -89t21.5 -94q35 -73 83 -124q7 -7 100 -104v0zM514 552
q-28 0 -48 20.5t-20 48t20 47.5t48 20t48 -20t20 -48t-20 -48t-48 -20v0z" />
    <glyph glyph-name="message" unicode="&#xe79c;" horiz-adv-x="1263" 
d="M610 805h416q43 0 71.5 -28.5t28.5 -71.5v-640q0 -44 -28.5 -72t-71.5 -28h-833q-38 0 -65 22t-34 59q-1 7 -1 19v639q0 44 28 72.5t72 28.5h417v0zM609 740h-416q-17 0 -26.5 -9t-9.5 -26v-641q0 -6 1 -10q7 -25 36 -25h830q37 0 37 37v636q0 38 -38 38h-414v0zM617 331
q-66 1 -101 16q-14 6 -26 14q-33 23 -70 49.5t-81.5 58.5t-69.5 50q-18 13 -15 33q4 20 24 25q14 4 30 -6q25 -19 159 -114q44 -32 47 -34q26 -21 60 -25q56 -7 98 6q10 3 20 10q84 60 220 157q18 13 36 4q16 -9 17 -26.5t-14 -29.5q-5 -3 -95 -67q-109 -78 -122 -87
q-33 -24 -76 -30q-3 -1 -41 -4v0z" />
    <glyph glyph-name="passenger" unicode="&#xe79f;" horiz-adv-x="1176" 
d="M587 -126h-472q-42 0 -72.5 25.5t-37.5 67.5q-1 7 -1 21v722q0 42 23.5 72t62.5 38q24 4 65 2q14 -1 23 -12.5t8 -26.5q-1 -14 -11.5 -23.5t-24.5 -9.5h-17.5h-17.5q-17 0 -27.5 -10.5t-10.5 -27.5v-727q0 -17 10 -27t27 -11h6h936q17 0 26 7q15 10 16 27v8v719
q0 42 -42 42h-31q-14 0 -24.5 9.5t-11.5 23.5q-1 15 7.5 26.5t23.5 12.5q46 4 70 -3q37 -10 59 -39.5t22 -68.5v-572v-152q0 -49 -32 -81t-81 -32h-471v0zM512 321q108 -66 112 -191h-72q-2 63 -44.5 103t-93.5 42q-64 3 -109 -39q-44 -42 -46 -106h-73q4 125 112 191
q-51 59 -35 132q11 52 55 85q43 33 96.5 29t92.5 -42q41 -39 44 -97.5t-39 -106.5v0zM405 349q27 -2 50 19t23 53q0 30 -21.5 51.5t-51.5 21.5t-51.5 -21t-21.5 -51.5t21 -51.5t52 -21v0zM588 750h-147q-13 0 -22.5 8t-12.5 21q-3 12 3 23.5t17 16.5q8 4 16 4h290
q16 0 27 -10.5t11 -25.5q0 -16 -11 -26.5t-27 -10.5h-144v0zM825 385h-127q-20 0 -31 15t-4 33q8 25 33 25h257q15 0 25.5 -10.5t10.5 -25.5t-10.5 -26t-25.5 -11h-128v0v0zM862 202h92q13 0 22.5 -8.5t11.5 -21.5t-4 -24t-19 -16q-6 -2 -14 -2h-180q-16 0 -26.5 10
t-10.5 26t10.5 26t27.5 10h90v0v0zM259 787v71q0 17 11 27.5t28 10.5q12 -1 21.5 -9.5t11.5 -20.5q1 -5 1 -10v-140q0 -18 -11 -29t-28 -10q-13 1 -22.5 9.5t-10.5 20.5q-1 7 -1 40v40v0zM916 787q0 -70 -1 -76q0 -13 -9 -22.5t-21 -11.5q-14 -1 -25 5.5t-15 18.5
q-2 7 -2 14v143q0 16 10.5 27t26 11t26 -10.5t10.5 -27.5v-71v0v0z" />
    <glyph glyph-name="refresh" unicode="&#xe7a1;" 
d="M852 99h-9h-77q-23 0 -30 21q-8 23 10 35q10 7 21 7q59 1 157 0q14 0 23.5 -9t9.5 -24v-156q0 -14 -9 -23.5t-23 -9.5q-13 0 -22.5 9t-9.5 24v66v9l-6 -6q-113 -122 -268 -154q-249 -51 -442 114q-130 111 -163 279q-49 246 113 436q114 135 290 168q118 22 231.5 -9.5
t201 -110t133.5 -189.5q37 -90 37 -190q0 -13 -7.5 -22t-19.5 -10.5t-22 5t-13 18.5q-1 4 -1 13q-2 136 -78 246.5t-202 161.5q-74 30 -152.5 32.5t-149 -21.5t-131 -68t-104 -109.5t-61.5 -142.5q-29 -119 5.5 -233.5t121.5 -196t206 -107.5q254 -56 436 142l2 2q1 2 2 3v0
z" />
    <glyph glyph-name="refund" unicode="&#xe7a2;" 
d="M852 99h-9h-77q-23 0 -30 21q-8 23 10 35q10 7 21 7q59 1 157 0q14 0 23.5 -9t9.5 -24v-156q0 -14 -9 -23.5t-23 -9.5q-13 0 -22.5 9t-9.5 24v66v9l-6 -6q-113 -122 -268 -154q-249 -51 -442 114q-130 111 -163 279q-49 246 113 436q114 135 290 168q118 22 231.5 -9.5
t201 -110t133.5 -189.5q37 -90 37 -190q0 -13 -7.5 -22t-19.5 -10.5t-22 5t-13 18.5q-1 4 -1 13q-2 136 -78 246.5t-202 161.5q-74 30 -152.5 32.5t-149 -21.5t-131 -68t-104 -109.5t-61.5 -142.5q-29 -119 5.5 -233.5t121.5 -196t206 -107.5q254 -56 436 142l2 2q1 2 2 3v0
zM479 321v64h-7h-114q-9 0 -14 1q-12 3 -18 13t-4.5 22t10.5 20t22 8h103h9q-5 5 -5 6q-103 102 -129 128q-14 14 -10 32q4 17 21 22.5t30 -5.5l6 -6q24 -23 67 -66.5t60 -59.5q0 -1 5 -6q6 5 6 6q15 14 41 40l47.5 47.5l40.5 40.5q10 11 23 11.5t23 -9.5q9 -8 10 -20
t-7 -22q-2 -2 -6 -7q-25 -24 -69.5 -69t-56.5 -57l-7 -6h9h103q29 0 34 -27q2 -13 -6 -24t-20 -13h-11h-113h-8v-64h7h118q26 0 32 -23q4 -16 -5.5 -28t-25.5 -12h-118h-9v-9v-119q0 -20 -18 -28t-34 4q-11 10 -11 26v118v8h-8h-119q-23 0 -30.5 21t9.5 35q9 7 23 7h116h8v0
z" />
    <glyph glyph-name="selectseat" unicode="&#xe7a3;" horiz-adv-x="1095" 
d="M871 -52v-41q-2 -19 -20 -28t-35 1q-17 11 -17 33v34h-508v-35q-1 -20 -16 -30.5t-32 -4.5q-23 8 -25 31v40h-33q-31 -1 -60 9q-55 18 -89.5 65t-35.5 104v368q0 44 31.5 75.5t75.5 31.5h36q9 61 10 64q18 85 83.5 147t150.5 75q27 5 49 5h222q105 -1 185.5 -71
t96.5 -173q0 -2 5 -47h29q27 -2 36 -4q35 -10 57 -38.5t22 -64.5q1 -252 0 -366q0 -75 -53 -127.5t-129 -52.5h-36v0zM218 596l2 -2q71 -30 71 -109v-170q0 -40 41 -40q359 -1 426 -1q17 0 29 11.5t12 30.5q-1 42 0 175q0 54 41 86q1 1 32 20q-3 38 -4 40
q-14 81 -74.5 131.5t-142.5 50.5h-212q-33 -1 -61 -8q-73 -20 -116.5 -79t-43.5 -136v0zM545 20h360q48 0 80 32t32 80v357q0 18 -10.5 29t-29.5 11h-65q-19 0 -29.5 -10.5t-10.5 -29.5v-85.5v-85.5q0 -8 -1 -15q-3 -42 -33.5 -71.5t-72.5 -29.5h-440q-36 0 -65 23
q-42 33 -42 90v175q0 18 -10.5 28.5t-28.5 10.5h-68q-17 0 -27.5 -11t-10.5 -28v-361q0 -14 4 -29q10 -36 39 -58t68 -22h361v0z" />
    <glyph glyph-name="switch" unicode="&#xe7a4;" 
d="M959 360q0 -93 -45 -180t-127 -150t-183 -83q-110 -23 -215.5 7t-185 105.5t-115.5 181.5q-43 127 -8.5 257.5t134.5 219.5q97 86 222 107q156 26 296 -52q11 -6 14.5 -17.5t-2.5 -21.5t-17 -13t-22 3q-63 35 -128 46q-174 27 -309 -80q-118 -94 -142 -241
q-29 -183 92 -323q85 -98 215 -125q121 -26 236 25t178 157q64 108 55 232q-7 83 -47 157q-4 6 -4 7q-5 11 -2 21.5t13 15.5q10 6 21 3t17 -13q19 -34 33 -73q26 -73 26 -173v0zM624 257q5 4 5 5q10 9 27 26.5t31.5 31.5t26.5 27q17 17 36 5q11 -7 13 -19t-6 -22
q-1 -2 -4 -4q-99 -99 -136 -137q-10 -9 -22 -9t-21 9q-6 8 -6 20v9.5v11.5v10v355q0 23 17 30q14 5 26 -3t13 -22v-7v-310v-7v0zM400 512l-5 -5q-71 -71 -86 -85q-12 -13 -29 -9q-14 4 -18.5 18t4.5 26l5 5l135 135q11 11 24 10q10 0 17.5 -7.5t8.5 -17.5v-7v-382
q0 -7 -1 -11q-3 -11 -11.5 -16.5t-19.5 -4.5q-10 1 -17 9t-7 18v44v272v8v0z" />
    <glyph glyph-name="timetable" unicode="&#xe7a7;" horiz-adv-x="1029" 
d="M1 385v407q0 36 20 63.5t54 36.5q14 4 26 4h652q40 0 69 -27.5t31 -67.5t1 -145q-1 -14 -11 -24t-24 -9.5t-23.5 10.5t-10.5 25v131q0 39 -39 39h-639q-38 0 -38 -38v-812q0 -38 38 -38h116h117q29 0 35 -27q3 -15 -6 -27.5t-24 -13.5h-6h-235q-34 0 -61 19t-37 51
q-5 16 -5 37v406v0zM683 -128q-93 0 -171.5 46t-124 124.5t-45.5 171t45.5 171.5t124.5 124.5t171.5 45.5t171 -46t124 -125t45.5 -172q0 -92 -45.5 -170.5t-124.5 -124t-171 -45.5v0zM683 487q-112 0 -192.5 -80t-80.5 -193t79.5 -193t192.5 -81q113 0 193.5 79.5
t80.5 191.5q1 114 -79 194.5t-194 81.5v0zM427 691h185q29 0 36 -25q4 -16 -5.5 -29t-25.5 -14h-5h-370q-15 0 -25 8.5t-12 22.5q-1 13 7.5 24t22.5 13h10h182v0zM273 419h-37q-11 0 -19.5 7.5t-10.5 18.5q-5 26 17 37q8 4 18 4q25 1 66 1q15 -1 25 -10.5t10 -23.5t-9.5 -24
t-24.5 -11h-35v1v0zM717 292v-59q0 -5 4 -9l27 -27t27 -28q14 -14 9.5 -32t-22.5 -24q-20 -6 -34 7l-70 70q-9 9 -9 23v137q0 15 10 24.5t24 9.5t24 -10t10 -24v-58v0z" />
    <glyph glyph-name="wangwang" unicode="&#xe7aa;" horiz-adv-x="1061" 
d="M202 828q3 -6 4 -7q61 -95 63 -99q10 -16 3 -32t-24 -19q-22 -4 -33 13q-49 76 -71 113q-20 32 1 66q19 33 58 32q56 -2 97 -4q101 -4 124 -6q61 -6 131 -18q59 -9 115 -23q100 -24 183 -85q157 -115 193 -293q47 -230 -108 -410q-123 -142 -314 -174q-230 -37 -414 94
q-150 107 -193 280q-44 180 49 346q8 13 21 17t25 -3t15.5 -20t-3.5 -26q-45 -79 -53 -164q-13 -149 72 -270q102 -145 280 -184q207 -45 380 71q140 95 176 250q48 203 -91 365q-87 102 -220 138q-27 8 -139 29q-69 14 -217 20q-80 3 -87 3h-23v0zM858 379q-7 -2 -43 -10
t-55 -12q5 104 -31 198l36 12l36 12q51 -93 57 -200v0zM534 490q45 15 70 23q45 -83 55 -178q-50 -12 -94 -21q-9 82 -10 88.5t-21 87.5v0z" />
    <glyph glyph-name="broadband" unicode="&#xe7ac;" horiz-adv-x="1095" 
d="M550 892h432q38 0 67 -20.5t40 -55.5q5 -17 5 -33v-617q0 -45 -31 -76.5t-76 -32.5h-5h-865q-40 0 -70 23t-39 61q-3 12 -3 28v611q0 49 31.5 80.5t80.5 31.5h433v0zM77 312h945v8v458q0 41 -42 41h-861q-42 0 -42 -41v-458v-8v0zM78 238v-77q0 -11 9 -20t21 -11
q5 -1 13 -1h857h8q16 1 25.5 11.5t9.5 26.5q1 11 0 66v5h-943v0zM549 -125h-357q-10 0 -15 2q-13 3 -20.5 14t-6 24.5t11 22.5t22.5 10h8h715q11 0 18 -3q12 -4 18.5 -15t4.5 -24t-11.5 -21.5t-22.5 -9.5h-10h-355v0z" />
    <glyph glyph-name="bus" unicode="&#xe7ad;" 
d="M684 -26h-342q-5 -18 -5 -19q-12 -39 -46.5 -62.5t-75.5 -19.5q-42 3 -72.5 31.5t-36.5 70.5q0 5 -5 7q-64 29 -64 96v577q0 88 58.5 155t145.5 79q16 3 35 3h474q87 0 153.5 -55.5t81.5 -141.5q3 -19 3 -40v-577q0 -33 -16.5 -58t-46.5 -38q-5 -2 -6 -7
q-5 -42 -37.5 -71.5t-74.5 -30.5q-44 -2 -78.5 25t-43.5 68q0 1 -1 8v0zM920 383l1 6v264q0 14 -2 26q-10 63 -57.5 104t-112.5 41h-473q-20 0 -37 -4q-59 -13 -96.5 -59t-37.5 -107v-265v-6h815v0zM853 43h8h24q16 0 26 9.5t10 25.5v231l-1 5h-815v-8v-122v-105
q0 -17 10 -26.5t26 -9.5q5 -1 13 -0.5t13 -0.5h6v-10q0 -43 1 -46q1 -19 15 -32t34 -14q19 0 34 12t17 31q0 3 1 50v9h476v-8v-42q0 -25 18 -40t42 -11q18 4 29.5 18t12.5 33v51v0zM513 688h-203q-15 0 -25 9.5t-10 24.5q0 14 9 23.5t23 10.5h6h399q7 0 10 -1
q14 -2 22 -12.5t6 -24.5q-1 -13 -10.5 -21.5t-22.5 -8.5h-176h-28v0zM751 246q28 0 48 -20t20 -48t-20.5 -48t-48.5 -19q-28 0 -47.5 20t-19.5 48t20 47.5t48 19.5v0zM275 246q29 0 48.5 -20t19.5 -48t-20 -48t-49 -19q-28 0 -47.5 19.5t-19.5 48.5q0 28 20 47.5t48 19.5v0z
" />
    <glyph glyph-name="bussiness" unicode="&#xe7ae;" horiz-adv-x="1095" 
d="M548 -125h-431q-60 0 -93 46q-21 27 -21 62v620q0 44 31.5 75t75.5 32h21h850q38 0 67.5 -21t39.5 -57q4 -15 4 -34v-203v-409q0 -40 -23 -69.5t-62 -38.5q-11 -3 -30 -3h-429v0zM76 347v-8v-352q0 -18 10.5 -28.5t28.5 -10.5h865q19 0 29.5 10.5t10.5 28.5v352v8h-182
v-34q0 -20 -15 -31q-17 -13 -37 -4q-20 10 -20 33q-1 3 -1 36h-435q0 -33 -1 -36q-1 -13 -7 -22q-14 -21 -40 -13q-24 8 -25 34v37h-181v0zM76 420h944v9v168q0 41 -41 41h-863q-40 0 -40 -41v-168v-9v0zM548 892h180q41 0 71 -25t37 -65q3 -12 2 -23q-2 -14 -12 -23t-24 -9
q-13 -1 -23.5 8t-12.5 23q0 2 -0.5 6.5t-1.5 7.5q-2 10 -10 17.5t-19 9.5h-11h-352q-39 0 -42 -39q-1 -14 -12 -24t-25 -9q-15 0 -25 10.5t-11 24.5q-1 45 31 77t76 33h184v0v0z" />
    <glyph glyph-name="calendar" unicode="&#xe7af;" 
d="M73 552h883v8v158q0 38 -38 38h-65q-13 0 -22.5 9t-10.5 22q-1 12 6.5 22.5t19.5 13.5q4 1 10 1h64q45 0 74.5 -30t29.5 -74v-744q0 -44 -30 -73.5t-74 -29.5h-811q-45 0 -74.5 29.5t-29.5 74.5v522v221q0 40 24.5 68.5t63.5 34.5q5 1 38 1h43q14 0 24 -9.5t10 -24.5
q0 -14 -9.5 -24t-24.5 -10h-33.5h-32.5q-16 0 -25.5 -9.5t-10.5 -24.5v-165l1 -5v0zM956 484h-884v-8v-497q0 -39 39 -39h806q39 0 39 39v497v8v0zM514 824h66q16 0 26 -10t10 -24.5t-10.5 -24t-25.5 -9.5h-134q-13 0 -22.5 9t-11 21.5t6 23t20.5 13.5q3 1 10 1h65v0z
M752 790v-66q0 -16 -9.5 -26t-24.5 -10t-24.5 10t-9.5 26v132q0 16 9.5 26t24 10t24.5 -10t10 -26v-66v0zM344 790v-67q0 -22 -19 -31q-18 -9 -34 2q-15 10 -15 27v138q1 14 10.5 23.5t24 9.5t24 -10t9.5 -25v-67v0z" />
    <glyph glyph-name="collect" unicode="&#xe7b1;" horiz-adv-x="1095" 
d="M1023 487q-57 14 -65 15q-175 42 -239 57q-5 1 -9 7q-41 65 -158 251l-5 8l-5 -8q-116 -185 -158 -251q-4 -6 -10 -8q-82 -19 -297 -70l-6 -1q25 -29 26 -30q136 -156 176 -203q4 -4 4 -9q-3 -34 -15 -185q-4 -49 -9 -110v-9l8 3q16 6 122 48.5t161 65.5q18 7 32.5 -1
t16.5 -26q4 -25 -23 -36l-110 -44q-165 -67 -181 -73q-30 -12 -58 2t-34 46q-3 11 -1 32q3 39 19 239v3.5t1 5.5q5 18 -13 38q-42 47 -172 197q-27 30 -15.5 66.5t50.5 45.5q78 19 274 65q8 2 11 7q40 64 146 233q23 35 60 35t59 -35q83 -132 146 -232q4 -6 12 -8l273 -65
q40 -9 51.5 -45.5t-15.5 -66.5q-16 -19 -81.5 -93.5t-100.5 -115.5q-4 -5 -4 -11q2 -21 11 -135t11 -141q1 -14 -8 -24t-22 -12q-14 -1 -24.5 7t-12.5 21q-1 10 -5 63q-1 7 -13 153q-5 74 -7 92q0 5 4 9q47 55 197 227l5 6v0z" />
    <glyph glyph-name="detail" unicode="&#xe7b3;" 
d="M886 179v9v596q0 40 -40 40h-669q-39 0 -39 -39v-805q0 -39 40 -39h366q15 0 25 -8.5t11 -22.5t-7.5 -25t-22.5 -12h-7h-368q-37 0 -64 20.5t-37 54.5q-3 13 -3 26v816q0 43 29.5 72.5t71.5 29.5h681q41 0 70.5 -29t30.5 -71v-80v-566q0 -29 -19 -49q-139 -139 -205 -204
q-13 -13 -44 -19q-16 -4 -27 6.5t-11 27.5v201q0 30 20 50t50 20h159h9v0zM716 -21q65 64 132 131h-132v-131v0zM512 688h201t35 -22q6 -16 -3.5 -30t-26.5 -16h-7h-397q-10 0 -17 2q-11 4 -17.5 14.5t-4.5 22.5q1 12 9.5 20t20.5 9h10h197v0zM512 416h-199q-17 0 -26 8
q-18 15 -11 36q7 22 31 24q1 1 5 1h400q30 -1 37 -26q4 -15 -5 -27.5t-24 -14.5q-3 -1 -10 -1h-198v0zM427 280h120q21 0 30 -19t-4 -35q-10 -13 -29 -13h-193h-41q-16 0 -25.5 9.5t-9.5 24.5q0 14 9.5 23.5t25.5 9.5h117v0v0z" />
    <glyph glyph-name="endorse" unicode="&#xe7b4;" 
d="M34 383v404q0 41 24.5 69.5t65.5 34.5q4 1 14 1h506q25 0 33 -21q8 -20 -7 -36q-9 -10 -22 -11h-10h-497q-39 0 -39 -39v-805q0 -39 39 -39h669q40 0 40 39v432q0 16 7 25q14 19 36 12q23 -7 25 -31v-6v-435q0 -40 -24.5 -68.5t-63.5 -34.5q-6 -1 -18 -1h-672
q-39 0 -67.5 23t-36.5 58q-2 10 -2 24v405v0zM987 790q-8 -19 -10 -22l-4 -5q-360 -359 -436 -436q-16 -15 -34 -12q-19 4 -25 22t6 33q1 2 4 5q273 273 437 436q12 13 26.5 13.5t25.5 -11.5q8 -10 9 -23h1v0zM373 518q-89 0 -101 1q-22 0 -31 19q-8 19 5 36q9 12 25 12h206
q14 0 23.5 -10t9.5 -23.5t-9.5 -23.5t-23.5 -10q-9 -1 -104 -1v0zM323 382h53q23 -1 30 -23q6 -21 -10 -36q-9 -9 -23 -9h-100q-15 1 -25 10.5t-10 23.5t9.5 24t24.5 10h51v0v0z" />
    <glyph glyph-name="exit" unicode="&#xe7b5;" 
d="M4 383v395q0 37 17.5 64.5t49.5 40.5q21 8 41 8q302 1 799 0q45 0 76.5 -31t32.5 -75q1 -28 0 -75q0 -15 -10.5 -25.5t-25.5 -11t-25.5 10.5t-10.5 27v33v34q0 41 -42 41h-788q-42 0 -42 -42v-788q0 -42 42 -42h788q42 0 42 42v70q0 12 9 21.5t21 11.5q14 2 25 -4.5
t15 -19.5q2 -6 2 -9q0 -80 -1 -90q-4 -38 -34 -65.5t-68 -28.5h-8h-794q-72 0 -103 66q-9 19 -8 47v150v245v0zM894 347h-9h-405q-34 0 -40 29q-3 15 6 28t24 15h12h403h11q-1 2 -2.5 3.5l-2.5 2.5t-2 1q-102 102 -111 112q-11 11 -12 25t9 25t24 12.5t26 -7.5l7 -7
l174 -174q29 -29 0 -58l-176 -176q-23 -23 -47 -7q-15 10 -17 26.5t11 30.5q10 10 75 74q6 7 43 43q-1 1 -1 2v0z" />
    <glyph glyph-name="flight" unicode="&#xe7b7;" horiz-adv-x="1176" 
d="M421 -54q57 0 70 1q4 0 8 6q37 58 153 241q57 89 62 97q13 20 37 20h272q27 0 47.5 15.5t26.5 41.5q8 34 -14 61.5t-58 27.5h-149h-125q-24 0 -37 21q-32 51 -104 164t-111 173q-4 8 -13 7h-57h-8q10 -29 11 -29q89 -245 103 -283q7 -19 -1.5 -33.5t-22.5 -17.5
q-5 -1 -11 -1q-27 -1 -110 -1h-129q-17 0 -29.5 12.5t-43.5 44t-48 48.5q-5 5 -12 5h-39q2 -7 2 -8q36 -124 46 -159q4 -16 0 -31q-8 -28 -46 -159l-2 -8h44q2 0 7 5l43 43l50 50q12 12 28 11.5t26 -13.5q9 -10 9 -24t-10 -24q-37 -37 -112 -111q-9 -10 -25 -10h-53h-53
q-21 0 -32 14.5t-5 34.5q40 140 55 191q4 15 0 31q-15 49 -55 191q-6 20 5 34.5t32 14.5h52h52q18 0 31 -13q45 -46 92 -92q5 -4 9 -5h167l3 1l-2 7q-21 56 -58.5 159.5t-52.5 144.5q-8 22 2.5 37.5t34.5 15.5h137q25 0 38 -21q37 -58 108.5 -170.5t105.5 -166.5q5 -7 13 -7
h249q53 0 93 -32t52 -84q13 -62 -25 -115t-102 -59q-10 -2 -21 -2q-160 0 -246 1q-8 0 -13 -8q-26 -41 -99.5 -156.5t-113.5 -179.5q-14 -22 -41 -22q-1 0 -137 1q-21 0 -32 15t-4 36q52 141 132 361q10 27 38 25q13 -1 22 -9.5t10 -20.5q2 -11 -3 -22q-21 -59 -101 -279
q-1 -4 -12 -34v0z" />
    <glyph glyph-name="food" unicode="&#xe7b8;" 
d="M459 170q9 -166 10 -178q2 -52 -35 -87t-89 -31q-40 3 -70 33t-32 70q-1 11 2 54q0 10 6 118q0 3 9 161q2 38 2 45q1 4 -3 7q-33 32 -56 64q-34 48 -44 116q-3 21 1 92q1 18 2 37.5t2.5 43.5t1.5 37q5 89 5 90q2 23 18 38t39 15q33 0 52 -1q3 0 9.5 -2.5t9.5 -2.5t9 2.5
t9 2.5q12 1 80 1q11 -6 31 -1q7 2 33 2t34 -2q18 -3 30.5 -16.5t14.5 -31.5q1 -15 5 -97q8 -143 9 -158q4 -101 -56 -172q-7 -10 -46 -50q-4 -4 -3 -9q2 -47 10 -190v0v0zM272 839h-41q-3 0 -3 -5q-2 -37 -4 -68q-6 -114 -7 -117q-3 -69 -2 -89q2 -56 34 -101q26 -36 64 -69
q9 -7 8 -17q-1 -6 -3 -37q-1 -25 -4 -78t-4 -81q-10 -180 -10.5 -187.5t0.5 -12.5q4 -22 22 -35.5t40 -11t36.5 19.5t13.5 39q0 8 -2 50q-2 27 -5.5 87.5t-5.5 92.5q-8 146 -9 165q0 5 4 10q40 37 51 49q57 61 52 149q-1 26 -12 220q0 1 -2 27h-43q-1 -23 -10 -242h-30
q-5 91 -14 241h-60q-1 -28 -6.5 -112t-8.5 -132h-22q-6 0 -7 1t-1 7q-1 22 -3.5 91t-4.5 106q0 2 -1 40v0zM867 384v-409q0 -36 -22 -63.5t-56 -35.5q-47 -10 -84 19.5t-37 77.5v294q0 11 -8 17q-43 36 -92 92q-15 17 -13 40q4 91 29 178q33 117 89 239q26 56 86 62
q38 4 70 -21.5t36 -63.5q2 -10 2 -19v-407v0zM810 384v407v6q-1 29 -28 39t-46 -11q-9 -11 -14 -22q-13 -28 -27 -62q-58 -145 -72 -232q-2 -12 -12 -91q0 -5 2 -7q59 -67 106 -101q6 -4 6 -11q-1 -83 0 -320v-7q1 -21 16.5 -33t35.5 -7q15 3 24 15t9 29v408v0z" />
    <glyph glyph-name="hint" unicode="&#xe7b9;" 
d="M386 194h255q2 39 3 41q7 46 46 82q72 66 95 135q38 118 -20 228q-7 14 -6 23q3 23 26 28q22 5 34 -16q31 -56 40 -114q27 -185 -110 -315q-16 -15 -23 -23q-24 -27 -21 -60q1 -5 0.5 -15.5t-0.5 -13.5v-36.5v-36.5q0 -42 -27 -69.5t-68 -27.5q-96 -2 -192 0
q-41 0 -68 27.5t-27 69.5v33.5v33.5q0 42 -1 50q-2 29 -28 53q-88 79 -116 175q-23 73 -10.5 145.5t47 132.5t94.5 103.5t134 58.5q126 26 241 -37q16 -9 18 -26.5t-13 -27.5q-17 -12 -36 -2q-45 25 -90 32q-153 24 -257 -86q-87 -91 -77 -219q9 -113 100 -194
q58 -51 58 -116l-1 -16v0zM387 130v-36q1 -11 10 -19t20 -8h194q10 0 18 6t10 16q1 3 3 41h-255v0zM514 -124h-95q-24 0 -31 23t13 35q9 5 18 5q82 1 191 0q13 0 22 -9t9 -22t-9 -22.5t-23 -9.5h-95v0z" />
    <glyph glyph-name="more2" unicode="&#xe7c2;" 
d="M0 384q0 179 112 319.5t286 179.5q190 43 364 -54q22 -12 18 -35q-4 -22 -28 -25q-10 -2 -22 5q-61 35 -132 49q-100 21 -199 -5t-177.5 -92.5t-119.5 -160.5q-45 -104 -37 -216q10 -137 97.5 -246t219.5 -148q73 -20 143.5 -19t137 26.5t121 66.5t95.5 101t61 131
q51 177 -40 342q-11 21 1 37q10 15 27 14t27 -17q26 -46 43 -99q32 -101 21 -205q-15 -156 -115 -276t-250 -164q-86 -23 -169 -20.5t-160 34.5t-140 82.5t-108 123.5t-65 158q-12 55 -12 113zM640 383q0 -37 32 -55.5t64 0t32 56t-32 56t-64 0t-32 -56.5v0zM446 383
q0 -26 19 -45t46 -19t45.5 19t18.5 45q0 38 -32 56.5t-64.5 0t-32.5 -56.5zM253 383q0 -37 32.5 -55.5t64.5 0t32 56t-32 55.5q-15 9 -32 9t-32 -9q-33 -18 -33 -56v0z" />
    <glyph glyph-name="phone" unicode="&#xe7c7;" horiz-adv-x="1034" 
d="M4 643q-1 109 88 183q50 42 86 58q31 14 58 11q43 -4 67 -40q16 -25 27 -52q15 -39 42.5 -111t37.5 -97q15 -38 -9 -69q-29 -38 -44 -53q-21 -23 -6 -53q21 -39 63 -89q54 -64 133 -109q4 -3 25 -11q11 -5 20 2q12 9 36 29q2 1 14 11t18 14q31 24 67 10q22 -9 97.5 -37.5
t116.5 -44.5q20 -8 40 -20q32 -20 43 -50t-1 -66q-9 -25 -21 -44q-19 -28 -50 -65q-9 -12 -23 -12.5t-25 8.5q-11 10 -11.5 24t9.5 26q27 34 42 55q8 12 15 33q7 20 -11 31q-19 11 -32 16q-39 15 -111 42.5t-99 38.5q-5 2 -10 -3q-44 -36 -54 -44q-36 -28 -72 -24
q-26 4 -55 20q-148 85 -225 230q-10 19 -14 46q-6 33 19 66q15 20 48 59q4 5 1 13q-9 25 -36.5 96t-42.5 110q-6 15 -17 34q-11 17 -30 11q-14 -5 -25 -11q-54 -31 -85 -70q-33 -39 -35 -94q-3 -58 23 -138q42 -127 136 -238q113 -135 231 -219q111 -79 240 -109
q4 -1 13 -2.5t12 -2.5q14 -3 21.5 -14.5t5.5 -25.5q-2 -13 -13 -21t-25 -6q-65 9 -150 45q-114 47 -221 141q-132 116 -212 229q-87 122 -120 264q-10 41 -10 89v0z" />
    <glyph glyph-name="reminder" unicode="&#xe7ca;" horiz-adv-x="1029" 
d="M514 10h-470q-18 0 -29.5 10.5t-10.5 28.5q1 3 0.5 13.5t0.5 13.5q0 16 9.5 25.5t24.5 10.5q44 1 73 30.5t29 73.5q0 10 -0.5 154t0.5 153q1 111 61.5 203t162.5 136q63 28 131.5 31t130 -17.5t114 -59t89.5 -96t51 -125.5q7 -38 7 -78v-301q0 -39 23 -67t60 -35
q7 -2 19 -2q15 -1 24.5 -10t9.5 -24q1 -17 0 -34q-1 -16 -11 -25t-26 -9h-473v0zM887 78l-2 2q-66 54 -65 143q1 127 0 294q0 30 -6 59q-14 81 -67.5 143t-131 89.5t-158.5 11.5q-109 -22 -178.5 -106.5t-69.5 -195.5v-151.5v-151.5q0 -65 -43 -114q-2 -2 -19 -23h740v0z
M515 -58h200q32 0 37 -29q2 -13 -6 -24.5t-22 -13.5q-5 -1 -11 -1h-398q-31 0 -37 26q-4 16 6 29t28 13h57h73.5h72.5v0zM507 758l16 -2q13 -3 20 -14t5 -23.5t-11 -20.5t-22 -9q-45 0 -80 -20q-81 -45 -90 -137l-1 -14t-10.5 -23.5t-23.5 -9.5q-14 1 -24 11t-10 24
q1 81 49 143q68 88 182 95v0z" />
    <glyph glyph-name="sale" unicode="&#xe7cb;" 
d="M261 895h149q38 0 74 -26q19 -13 59 -54q116 -115 445 -444q26 -26 32 -61t-10 -67q-8 -16 -21 -29q-124 -125 -307 -307q-31 -32 -76.5 -32t-77.5 32q-327 326 -480 480q-36 36 -43 71q-3 12 -3 24v308q0 44 29.5 74t73.5 31h156v0v0zM260 826h-21h-131q-17 0 -27 -10
t-10 -26v-308q0 -10 4 -17q15 -22 24 -32l475 -475q14 -14 31 -14t31 14q254 255 302 302q13 13 13 32t-13 32q-66 65 -197.5 196.5l-196.5 196.5q-8 8 -30 31t-38.5 38.5t-33.5 27.5t-32 12h-150v0zM277 481q-57 0 -97.5 41t-40 98t41 97t97.5 40t97.5 -40.5t39.5 -98.5
q0 -57 -40.5 -97t-97.5 -40v0zM277 550q29 0 49.5 20.5t20.5 48.5t-20.5 48.5t-48.5 20.5t-48.5 -20t-20.5 -49q-1 -28 19.5 -48.5t48.5 -20.5v0z" />
    <glyph glyph-name="scan" unicode="&#xe7cc;" 
d="M513 419h465q11 0 16 -1q13 -4 20.5 -15t6 -24t-11 -22.5t-23.5 -9.5q-1 -1 -7 -1h-934q-33 0 -40 28q-4 16 5.5 29.5t26.5 15.5h11h465v0zM220 891h110q24 0 34 -21q9 -21 -6 -38q-10 -13 -28 -13h-17h-20h-16h-158q-42 0 -42 -43q0 -198 -1 -211q0 -19 -15 -30t-33 -5
q-24 9 -24 34v223q1 42 32 72.5t75 31.5h109v0v0zM219 -125h-108q-38 0 -67 23.5t-37 61.5q-3 11 -3 23v216q0 17 10.5 28t26 11t26 -11t10.5 -28v-105v-106t41 -41h211q15 0 25.5 -9t12.5 -23q2 -16 -8.5 -28t-27.5 -12h-112v0v0zM806 -125h-113q-16 0 -26 11t-9 27
q0 14 11 24t26 10h74h139q40 0 40 41v105.5v105.5q0 30 27 37q17 5 31.5 -6t14.5 -30v-217q0 -6 -2 -16q-5 -37 -34 -64t-67 -28h-112v0v0zM1021 676v-112q0 -12 -7.5 -21.5t-20.5 -13.5q-11 -3 -22.5 1.5t-17 14.5t-5.5 23v207q0 44 -43 44h-208q-17 0 -28 9.5t-11 24.5
q-1 16 9.5 27t26.5 11h39h177q40 0 70 -23.5t38 -62.5q2 -11 3 -25v-104v0z" />
    </font>
</defs>
</svg>
